<svg width="106" height="122" viewBox="0 0 106 122" fill="none" xmlns="http://www.w3.org/2000/svg">
<g>
<path d="M68.5682 29.4501C64.8831 29.9804 56.7964 33.7959 53.2137 35.6373C49.046 32.1754 37.3765 26.0913 24.04 29.4501C7.36932 33.6486 1.22746 50.0005 1.00811 63.4797C0.788762 76.959 4.95643 95.0787 20.9691 111.21C36.9817 127.341 47.9492 118.06 52.1169 118.281C56.2846 118.502 55.1878 118.281 58.6974 119.165C62.2071 120.049 71.4198 125.352 84.3615 112.535C97.3032 99.7191 104.542 80.0526 104.981 63.4797C105.419 46.9069 98.4 36.7422 88.5292 31.6598C78.6584 26.5775 73.1746 28.7872 68.5682 29.4501Z" fill="#C22121"/>
<path d="M68.5682 29.4501C64.8831 29.9804 56.7964 33.7959 53.2137 35.6373C49.046 32.1754 37.3765 26.0913 24.04 29.4501C7.36932 33.6486 1.22746 50.0005 1.00811 63.4797C0.788762 76.959 4.95643 95.0787 20.9691 111.21C36.9817 127.341 47.9492 118.06 52.1169 118.281C56.2846 118.502 55.1878 118.281 58.6974 119.165C62.2071 120.049 71.4198 125.352 84.3615 112.535C97.3032 99.7191 104.542 80.0526 104.981 63.4797C105.419 46.9069 98.4 36.7422 88.5292 31.6598C78.6584 26.5775 73.1746 28.7872 68.5682 29.4501Z" fill="url(#paint0_radial_89_2452)"/>
<path d="M68.5682 29.4501C64.8831 29.9804 56.7964 33.7959 53.2137 35.6373C49.046 32.1754 37.3765 26.0913 24.04 29.4501C7.36932 33.6486 1.22746 50.0005 1.00811 63.4797C0.788762 76.959 4.95643 95.0787 20.9691 111.21C36.9817 127.341 47.9492 118.06 52.1169 118.281C56.2846 118.502 55.1878 118.281 58.6974 119.165C62.2071 120.049 71.4198 125.352 84.3615 112.535C97.3032 99.7191 104.542 80.0526 104.981 63.4797C105.419 46.9069 98.4 36.7422 88.5292 31.6598C78.6584 26.5775 73.1746 28.7872 68.5682 29.4501Z" fill="url(#paint1_radial_89_2452)"/>
<path d="M61.6285 5.67997C53.9957 10.7116 53.1619 18.7339 52.4509 24.7338C52.3874 25.2695 52.8225 25.7385 53.3578 25.7226C73.8021 25.1144 75.7954 19.7232 79.703 14.3461C82.3108 10.7577 85.4549 6.16237 87.4943 2.99757C87.8594 2.43103 87.4788 1.67776 86.8109 1.61832C80.7047 1.07486 71.1793 -0.61602 61.6285 5.67997Z" fill="#467D44"/>
<path d="M61.6285 5.67997C53.9957 10.7116 53.1619 18.7339 52.4509 24.7338C52.3874 25.2695 52.8225 25.7385 53.3578 25.7226C73.8021 25.1144 75.7954 19.7232 79.703 14.3461C82.3108 10.7577 85.4549 6.16237 87.4943 2.99757C87.8594 2.43103 87.4788 1.67776 86.8109 1.61832C80.7047 1.07486 71.1793 -0.61602 61.6285 5.67997Z" fill="url(#paint2_linear_89_2452)" fill-opacity="0.2"/>
<path d="M44.964 5.02876L41.2366 7.37565C40.8219 7.6367 40.6982 8.18716 40.9657 8.59945C43.0299 11.7806 46.4346 16.8054 48.3796 20.8874C50.3203 24.9604 51.8511 32.8494 52.2509 36.4253C52.3024 36.8855 52.6838 37.2393 53.1435 37.2393H54.6612C55.1758 37.2393 55.5798 36.7967 55.5312 36.2806C55.3267 34.1047 54.899 29.9668 54.3021 25.3069C53.6386 20.1263 48.8715 10.3248 46.1904 5.34848C45.9507 4.90373 45.39 4.76057 44.964 5.02876Z" fill="#5B3E26"/>
</g>
<path d="M24.9873 44.452C25.6489 44.3796 26.2312 44.0471 26.5995 43.495C26.9683 42.9448 27.0929 42.22 26.9525 41.5129C26.8121 40.8058 26.42 40.1837 25.869 39.8161C25.3176 39.4466 24.6525 39.3618 24.0134 39.5477C24.0134 39.5477 24.0134 39.5477 24.0134 39.5477C23.3291 39.7261 22.7008 39.9921 22.1463 40.2894C13.4349 46.4017 11.0937 56.6444 13.4816 65.1316C13.6346 65.5982 13.8064 66.0517 13.9997 66.4999C13.8855 66.0254 13.7951 65.5528 13.7249 65.0741C12.5755 56.6044 17.751 47.3688 24.1082 44.6153C24.4275 44.5156 24.7355 44.4588 24.9873 44.452Z" fill="white" fill-opacity="0.4"/>
<defs>
<radialGradient id="paint0_radial_89_2452" cx="0" cy="0" r="1" gradientTransform="matrix(-88.3903 -48.669 63.4787 -76.6948 93.7855 101.763)" gradientUnits="userSpaceOnUse">
<stop offset="0.160282" stop-color="#860808"/>
<stop offset="0.772672" stop-color="#731818" stop-opacity="0"/>
</radialGradient>
<radialGradient id="paint1_radial_89_2452" cx="0" cy="0" r="1" gradientTransform="matrix(1.09675 13.4793 -13.1268 -1.50089 53.6443 35.4716)" gradientUnits="userSpaceOnUse">
<stop offset="0.160282" stop-color="#870B0B"/>
<stop offset="0.772672" stop-color="#731818" stop-opacity="0"/>
</radialGradient>
<linearGradient id="paint2_linear_89_2452" x1="69.8762" y1="11.6066" x2="72.8101" y2="16.1749" gradientUnits="userSpaceOnUse">
<stop/>
<stop offset="1" stop-color="#666666" stop-opacity="0"/>
</linearGradient>
</defs>
</svg>
