<svg width="196" height="116" viewBox="0 0 196 116" fill="none" xmlns="http://www.w3.org/2000/svg">
<g filter="url(#filter0_d_99_1546)">
<path d="M63.1766 74.1346C63.1766 79.9719 65.9206 85.5373 46.6632 89.9976C41.1492 91.2748 25.0281 94.5809 8.91402 87.8965C-0.136587 83.1781 1.05136 81.0836 1.05136 74.1346C1.05136 67.1855 14.9586 61.5522 32.114 61.5522C49.2694 61.5522 63.1766 67.1855 63.1766 74.1346Z" fill="#807D78"/>
<ellipse cx="32.1056" cy="71.7757" rx="31.0626" ry="12.5823" fill="#DFDDD8"/>
<ellipse cx="32.1052" cy="70.9893" rx="27.1306" ry="10.2231" fill="#9B9996"/>
<ellipse cx="32.1052" cy="71.7756" rx="27.1306" ry="9.43674" fill="#C9C7C3"/>
</g>
<g filter="url(#filter1_d_99_1546)">
<path d="M64.7499 61.5525C64.7499 67.3898 67.4939 72.9553 48.2365 77.4156C42.7224 78.6928 26.6013 81.9988 10.4873 75.3145C1.43666 70.5961 2.6246 68.5016 2.6246 61.5525C2.6246 54.6035 16.5318 48.9702 33.6872 48.9702C50.8426 48.9702 64.7499 54.6035 64.7499 61.5525Z" fill="#807D78"/>
<ellipse cx="33.6788" cy="59.1932" rx="31.0626" ry="12.5823" fill="#DFDDD8"/>
<ellipse cx="33.6785" cy="58.4067" rx="27.1306" ry="10.2231" fill="#9B9996"/>
<ellipse cx="33.6785" cy="59.1931" rx="27.1306" ry="9.43674" fill="#C9C7C3"/>
</g>
<g filter="url(#filter2_d_99_1546)">
<path d="M73.3993 50.5428C73.3993 56.3801 76.1433 61.9455 56.8859 66.4058C51.3718 67.683 35.2507 70.9891 19.1367 64.3047C10.0861 59.5863 11.274 57.4918 11.274 50.5428C11.274 43.5937 25.1812 37.9604 42.3366 37.9604C59.492 37.9604 73.3993 43.5937 73.3993 50.5428Z" fill="#807D78"/>
<ellipse cx="42.3292" cy="48.1834" rx="31.0626" ry="12.5823" fill="#DFDDD8"/>
<ellipse cx="42.3289" cy="47.397" rx="27.1306" ry="10.2231" fill="#9B9996"/>
<ellipse cx="42.3289" cy="48.1833" rx="27.1306" ry="9.43674" fill="#C9C7C3"/>
</g>
<g filter="url(#filter3_d_99_1546)">
<path d="M78.9042 38.7469C78.9042 44.5842 81.6482 50.1496 62.3908 54.6099C56.8767 55.8871 40.7556 59.1932 24.6416 52.5088C15.591 47.7904 16.7789 45.6959 16.7789 38.7469C16.7789 31.7978 30.6861 26.1646 47.8415 26.1646C64.9969 26.1646 78.9042 31.7978 78.9042 38.7469Z" fill="#807D78"/>
<ellipse cx="47.8331" cy="36.388" rx="31.0626" ry="12.5823" fill="#DFDDD8"/>
<ellipse cx="47.8338" cy="35.6016" rx="27.1306" ry="10.2231" fill="#9B9996"/>
<ellipse cx="47.8338" cy="36.3879" rx="27.1306" ry="9.43674" fill="#C9C7C3"/>
</g>
<g filter="url(#filter4_d_99_1546)">
<path d="M72.6132 24.5921C72.6132 30.4294 75.3571 35.9948 56.0998 40.4552C50.5857 41.7323 34.4646 45.0384 18.3505 38.354C9.29994 33.6356 10.4879 31.5411 10.4879 24.5921C10.4879 17.6431 24.3951 12.0098 41.5505 12.0098C58.7059 12.0098 72.6132 17.6431 72.6132 24.5921Z" fill="#807D78"/>
<ellipse cx="41.5421" cy="22.2327" rx="31.0626" ry="12.5823" fill="#DFDDD8"/>
<ellipse cx="41.5427" cy="21.4463" rx="27.1306" ry="10.2231" fill="#9B9996"/>
<ellipse cx="41.5427" cy="22.2326" rx="27.1306" ry="9.43674" fill="#C9C7C3"/>
</g>
<g filter="url(#filter5_d_99_1546)">
<path d="M75.7157 15.9417C75.7157 21.779 78.4597 27.3444 59.2023 31.8048C53.6882 33.0819 37.5671 36.388 21.4531 29.7036C12.4025 24.9852 13.5904 22.8907 13.5904 15.9417C13.5904 8.99267 27.4976 3.35938 44.653 3.35938C61.8084 3.35938 75.7157 8.99267 75.7157 15.9417Z" fill="#807D78"/>
<ellipse cx="44.6446" cy="13.5823" rx="31.0626" ry="12.5823" fill="#DFDDD8"/>
<ellipse cx="44.6453" cy="12.7959" rx="27.1306" ry="10.2231" fill="#9B9996"/>
<ellipse cx="44.6453" cy="13.5823" rx="27.1306" ry="9.43674" fill="#C9C7C3"/>
<path d="M50.7124 12.9265C51.6906 13.4973 51.6907 14.4227 50.7124 14.9933C50.2293 15.2751 49.6025 15.4167 48.9656 15.4204L46.5286 15.4349L46.5037 16.8563C46.4975 17.2277 46.2544 17.5934 45.7715 17.8752C44.7933 18.4458 43.2066 18.4457 42.2281 17.8752C41.7449 17.5933 41.5005 17.2278 41.4942 16.8563L41.4702 15.4344L39.0324 15.4204C38.3956 15.4166 37.7695 15.2745 37.2864 14.9928C36.3079 14.422 36.308 13.4966 37.2864 12.926C37.7695 12.6443 38.3958 12.5021 39.0324 12.4984L41.4702 12.4844L41.4942 11.0625C41.5006 10.6912 41.7443 10.3259 42.2273 10.0441C43.2057 9.47345 44.7922 9.4734 45.7707 10.0441C46.2539 10.326 46.4983 10.6916 46.5046 11.063L46.5278 12.4844L48.9656 12.4985C49.6024 12.5021 50.2292 12.6447 50.7124 12.9265Z" fill="#C9C7C3" stroke="#9B9996" stroke-width="4"/>
<path d="M39.4075 16.8684C39.419 17.5454 39.8668 18.2195 40.7519 18.7358L40.4696 18.9005C39.5075 18.3394 39.0206 17.6061 39.0081 16.8707C37.7473 16.8634 36.4902 16.5794 35.5281 16.0183L35.8105 15.8536C36.6956 16.3699 37.8514 16.6311 39.0121 16.6378L39.4036 16.6401L39.4075 16.8684ZM47.2464 18.7359C48.1315 18.2196 48.5793 17.5455 48.5908 16.8685L48.5947 16.6401L48.9862 16.6379C50.1469 16.6312 51.3026 16.37 52.1878 15.8537C53.9812 14.8077 53.9811 13.1117 52.1877 12.0657C51.3026 11.5494 50.1468 11.2881 48.9862 11.2814L48.5947 11.2791L48.5908 11.0508C48.5793 10.3738 48.1314 9.6997 47.2463 9.18341C45.4529 8.13735 42.5452 8.13733 40.7518 9.18335C39.8667 9.69962 39.4188 10.3737 39.4074 11.0507L39.4034 11.2791L39.0119 11.2813C37.8513 11.288 36.6956 11.5492 35.8104 12.0655C34.017 13.1115 34.0171 14.8075 35.8105 15.8536L35.5281 16.0183C33.5788 14.8812 33.5787 13.0378 35.5281 11.9008C36.4901 11.3397 37.7471 11.0557 39.008 11.0484C39.0205 10.313 39.5074 9.57978 40.4695 9.01865C42.4188 7.88167 45.5793 7.8817 47.5286 9.01872C48.4907 9.57986 48.9777 10.3131 48.9901 11.0485C50.251 11.0558 51.508 11.3398 52.4701 11.901C54.4194 13.038 54.4195 14.8814 52.4701 16.0184C51.5081 16.5796 50.251 16.8635 48.9901 16.8708C48.9777 17.6062 48.4908 18.3394 47.5287 18.9006C45.5794 20.0376 42.4189 20.0375 40.4696 18.9005L40.7519 18.7358C42.5453 19.7819 45.453 19.7819 47.2464 18.7359Z" fill="#DFDDD8"/>
<path d="M40.7519 18.7358C39.8668 18.2195 39.419 17.5454 39.4075 16.8684L39.4036 16.6401L39.0121 16.6378C37.8514 16.6311 36.6956 16.3699 35.8105 15.8536M40.7519 18.7358L40.4696 18.9005M40.7519 18.7358L40.4696 18.9005M40.7519 18.7358C42.5453 19.7819 45.453 19.7819 47.2464 18.7359C48.1315 18.2196 48.5793 17.5455 48.5908 16.8685L48.5947 16.6401L48.9862 16.6379C50.1469 16.6312 51.3026 16.37 52.1878 15.8537C53.9812 14.8077 53.9811 13.1117 52.1877 12.0657C51.3026 11.5494 50.1468 11.2881 48.9862 11.2814L48.5947 11.2791L48.5908 11.0508C48.5793 10.3738 48.1314 9.6997 47.2463 9.18341C45.4529 8.13735 42.5452 8.13733 40.7518 9.18335C39.8667 9.69962 39.4188 10.3737 39.4074 11.0507L39.4034 11.2791L39.0119 11.2813C37.8513 11.288 36.6956 11.5492 35.8104 12.0655C34.017 13.1115 34.0171 14.8075 35.8105 15.8536M40.4696 18.9005C39.5075 18.3394 39.0206 17.6061 39.0081 16.8707C37.7473 16.8634 36.4902 16.5794 35.5281 16.0183M40.4696 18.9005C42.4189 20.0375 45.5794 20.0376 47.5287 18.9006C48.4908 18.3394 48.9777 17.6062 48.9901 16.8708C50.251 16.8635 51.5081 16.5796 52.4701 16.0184C54.4195 14.8814 54.4194 13.038 52.4701 11.901C51.508 11.3398 50.251 11.0558 48.9901 11.0485C48.9777 10.3131 48.4907 9.57986 47.5286 9.01872C45.5793 7.8817 42.4188 7.88167 40.4695 9.01865C39.5074 9.57978 39.0205 10.313 39.008 11.0484C37.7471 11.0557 36.4901 11.3397 35.5281 11.9008C33.5787 13.0378 33.5788 14.8812 35.5281 16.0183M35.5281 16.0183L35.8105 15.8536M35.5281 16.0183L35.8105 15.8536" stroke="#9B9996" stroke-width="0.5"/>
<path d="M44.8749 13.6358C44.4316 13.5534 43.9532 13.5562 43.5118 13.6428C43.3602 13.9063 43.3602 14.1924 43.5118 14.4559C43.9637 14.5445 44.4538 14.5443 44.9058 14.4559C45.0543 14.1982 45.0594 13.9195 44.9179 13.6608M44.8749 13.6358L44.9179 13.6608M44.8749 13.6358L44.9179 13.6608M44.8749 13.6358C44.8855 13.6377 44.8954 13.6407 44.9058 13.6428C44.9094 13.6489 44.9145 13.6547 44.9179 13.6608" fill="#C9C7C3" stroke="#9B9996" stroke-width="4"/>
<path d="M44.21 14.768L45.4422 14.0493L44.21 13.3306L42.9778 14.0493L44.21 14.768ZM45.7952 13.9258C45.9121 13.994 45.9121 14.1047 45.7952 14.1729L44.4218 14.9739L44.4106 14.9801C44.2931 15.0421 44.1115 15.04 43.9982 14.9739L42.6249 14.1728C42.5079 14.1046 42.5079 13.994 42.6249 13.9258L43.9982 13.1248C44.1152 13.0565 44.3048 13.0565 44.4218 13.1248L45.7952 13.9258Z" fill="#DFDDD8" stroke="#9B9996"/>
<path d="M52.4716 10.9819C54.4209 12.1189 54.4209 13.9622 52.4718 15.0991C51.5098 15.6601 50.2528 15.9441 48.9921 15.9513C48.9796 16.6867 48.4928 17.4198 47.5308 17.9809C45.5817 19.1177 42.4214 19.1176 40.4722 17.9806C39.5101 17.4195 39.0233 16.6863 39.0108 15.9509C37.75 15.9436 36.493 15.6596 35.531 15.0984C33.5817 13.9614 33.5816 12.1181 35.5308 10.9813C36.4927 10.4202 37.7497 10.1363 39.0105 10.129C39.0229 9.39365 39.5098 8.66052 40.4717 8.09946C42.4209 6.96261 45.5812 6.96273 47.5304 8.09972C48.4924 8.66086 48.9794 9.39403 48.9919 10.1294C50.2526 10.1367 51.5096 10.4208 52.4716 10.9819Z" fill="#C9C7C3"/>
<path d="M39.4101 15.9486C39.4216 16.6256 39.8694 17.2997 40.7545 17.8159L40.4722 17.9806C39.5101 17.4195 39.0233 16.6863 39.0108 15.9509C37.75 15.9436 36.493 15.6596 35.531 15.0984L35.8133 14.9338C36.6984 15.45 37.8541 15.7113 39.0147 15.718L39.4062 15.7203L39.4101 15.9486ZM47.2485 17.8162C48.1335 17.3 48.5813 16.6259 48.5927 15.949L48.5966 15.7206L48.9881 15.7184C50.1487 15.7117 51.3044 15.4506 52.1894 14.9344C53.9827 13.8885 53.9826 12.1926 52.1893 11.1466C51.3042 10.6303 50.1485 10.3691 48.9879 10.3623L48.5965 10.36L48.5925 10.1317C48.581 9.45477 48.1332 8.78067 47.2481 8.2644C45.4548 7.21837 42.5473 7.21826 40.7541 8.26416C39.869 8.78036 39.4212 9.45442 39.4098 10.1313L39.4059 10.3597L39.0144 10.3619C37.8538 10.3686 36.6982 10.6298 35.8131 11.146C34.0199 12.1919 34.02 13.8877 35.8133 14.9338L35.531 15.0984C33.5817 13.9614 33.5816 12.1181 35.5308 10.9813C36.4927 10.4202 37.7497 10.1363 39.0105 10.129C39.0229 9.39365 39.5098 8.66052 40.4717 8.09946C42.4209 6.96261 45.5812 6.96273 47.5304 8.09972C48.4924 8.66086 48.9794 9.39403 48.9919 10.1294C50.2526 10.1367 51.5096 10.4208 52.4716 10.9819C54.4209 12.1189 54.4209 13.9622 52.4718 15.0991C51.5098 15.6601 50.2528 15.9441 48.9921 15.9513C48.9796 16.6867 48.4928 17.4198 47.5308 17.9809C45.5817 19.1177 42.4214 19.1176 40.4722 17.9806L40.7545 17.8159C42.5478 18.862 45.4553 18.8621 47.2485 17.8162Z" fill="#DFDDD8"/>
<path d="M40.7545 17.8159C39.8694 17.2997 39.4216 16.6256 39.4101 15.9486L39.4062 15.7203L39.0147 15.718C37.8541 15.7113 36.6984 15.45 35.8133 14.9338M40.7545 17.8159L40.4722 17.9806M40.7545 17.8159L40.4722 17.9806M40.7545 17.8159C42.5478 18.862 45.4553 18.8621 47.2485 17.8162C48.1335 17.3 48.5813 16.6259 48.5927 15.949L48.5966 15.7206L48.9881 15.7184C50.1487 15.7117 51.3044 15.4506 52.1894 14.9344C53.9827 13.8885 53.9826 12.1926 52.1893 11.1466C51.3042 10.6303 50.1485 10.3691 48.9879 10.3623L48.5965 10.36L48.5925 10.1317C48.581 9.45477 48.1332 8.78067 47.2481 8.2644C45.4548 7.21837 42.5473 7.21826 40.7541 8.26416C39.869 8.78036 39.4212 9.45442 39.4098 10.1313L39.4059 10.3597L39.0144 10.3619C37.8538 10.3686 36.6982 10.6298 35.8131 11.146C34.0199 12.1919 34.02 13.8877 35.8133 14.9338M40.4722 17.9806C39.5101 17.4195 39.0233 16.6863 39.0108 15.9509C37.75 15.9436 36.493 15.6596 35.531 15.0984M40.4722 17.9806C42.4214 19.1176 45.5817 19.1177 47.5308 17.9809C48.4928 17.4198 48.9796 16.6867 48.9921 15.9513C50.2528 15.9441 51.5098 15.6601 52.4718 15.0991C54.4209 13.9622 54.4209 12.1189 52.4716 10.9819C51.5096 10.4208 50.2526 10.1367 48.9919 10.1294C48.9794 9.39403 48.4924 8.66086 47.5304 8.09972C45.5812 6.96273 42.4209 6.96261 40.4717 8.09946C39.5098 8.66052 39.0229 9.39365 39.0105 10.129C37.7497 10.1363 36.4927 10.4202 35.5308 10.9813C33.5816 12.1181 33.5817 13.9614 35.531 15.0984M35.531 15.0984L35.8133 14.9338M35.531 15.0984L35.8133 14.9338" stroke="#DFDDD8"/>
<path d="M42.6258 13.2534C42.5089 13.1852 42.5089 13.0746 42.6258 13.0064L43.9991 12.2054C44.116 12.1372 44.3056 12.1372 44.4226 12.2054L45.7959 13.0065C45.9129 13.0747 45.9129 13.1853 45.796 13.2535L44.4227 14.0545C44.3057 14.1227 44.1161 14.1227 43.9992 14.0545L42.6258 13.2534Z" fill="#C9C7C3"/>
<path d="M42.6258 13.2534C42.5089 13.1852 42.5089 13.0746 42.6258 13.0064L43.9991 12.2054C44.116 12.1372 44.3056 12.1372 44.4226 12.2054L45.7959 13.0065C45.9129 13.0747 45.9129 13.1853 45.796 13.2535L44.4227 14.0545C44.3057 14.1227 44.1161 14.1227 43.9992 14.0545L42.6258 13.2534Z" fill="#C9C7C3"/>
<path d="M44.2109 13.8491L45.4429 13.1305L44.2108 12.4118L42.9787 13.1304L44.2109 13.8491ZM45.7959 13.007C45.9128 13.0752 45.9128 13.1858 45.7959 13.254L44.4226 14.055L44.4115 14.0612C44.2939 14.1231 44.1124 14.121 43.9991 14.055L42.6258 13.2539C42.5089 13.1857 42.5088 13.0751 42.6258 13.0069L43.999 12.2059C44.116 12.1377 44.3056 12.1377 44.4226 12.206L45.7959 13.007Z" fill="#DFDDD8"/>
<path d="M44.2109 13.8491L45.4429 13.1305L44.2108 12.4118L42.9787 13.1304L44.2109 13.8491ZM45.7959 13.007C45.9128 13.0752 45.9128 13.1858 45.7959 13.254L44.4226 14.055L44.4115 14.0612C44.2939 14.1231 44.1124 14.121 43.9991 14.055L42.6258 13.2539C42.5089 13.1857 42.5088 13.0751 42.6258 13.0069L43.999 12.2059C44.116 12.1377 44.3056 12.1377 44.4226 12.206L45.7959 13.007Z" fill="#DFDDD8"/>
<path d="M44.2109 13.8491L45.4429 13.1305L44.2108 12.4118L42.9787 13.1304L44.2109 13.8491ZM45.7959 13.007C45.9128 13.0752 45.9128 13.1858 45.7959 13.254L44.4226 14.055L44.4115 14.0612C44.2939 14.1231 44.1124 14.121 43.9991 14.055L42.6258 13.2539C42.5089 13.1857 42.5088 13.0751 42.6258 13.0069L43.999 12.2059C44.116 12.1377 44.3056 12.1377 44.4226 12.206L45.7959 13.007Z" stroke="#DFDDD8" stroke-width="0.5"/>
</g>
<g filter="url(#filter6_d_99_1546)">
<path d="M192.295 72.8477C192.295 78.1822 194.802 83.2683 177.204 87.3444C172.165 88.5116 157.432 91.5329 142.706 85.4243C134.435 81.1123 135.521 79.1982 135.521 72.8477C135.521 66.4972 148.23 61.3491 163.908 61.3491C179.585 61.3491 192.295 66.4972 192.295 72.8477Z" fill="#807D78"/>
<ellipse cx="163.9" cy="70.6919" rx="28.3871" ry="11.4986" fill="#DFDDD8"/>
<ellipse cx="163.9" cy="69.973" rx="24.7938" ry="9.3426" fill="#9B9996"/>
<ellipse cx="163.9" cy="70.6918" rx="24.7938" ry="8.62394" fill="#C9C7C3"/>
</g>
<g filter="url(#filter7_d_99_1546)">
<path d="M194.654 59.479C194.654 64.8136 197.162 69.8996 179.563 73.9758C174.524 75.1429 159.791 78.1642 145.065 72.0556C136.794 67.7437 137.88 65.8295 137.88 59.479C137.88 53.1286 150.589 47.9805 166.267 47.9805C181.945 47.9805 194.654 53.1286 194.654 59.479Z" fill="#807D78"/>
<ellipse cx="166.259" cy="57.3228" rx="28.3871" ry="11.4986" fill="#DFDDD8"/>
<ellipse cx="166.259" cy="56.6043" rx="24.7938" ry="9.3426" fill="#9B9996"/>
<ellipse cx="166.259" cy="57.3227" rx="24.7938" ry="8.62394" fill="#C9C7C3"/>
<path d="M171.712 56.9265C172.691 57.4973 172.691 58.4227 171.712 58.9933C171.229 59.2751 170.602 59.4167 169.966 59.4204L167.529 59.4349L167.504 60.8563C167.497 61.2277 167.254 61.5934 166.772 61.8752C165.793 62.4458 164.207 62.4457 163.228 61.8752C162.745 61.5933 162.5 61.2278 162.494 60.8563L162.47 59.4344L160.032 59.4204C159.396 59.4166 158.769 59.2745 158.286 58.9928C157.308 58.422 157.308 57.4966 158.286 56.926C158.77 56.6443 159.396 56.5021 160.032 56.4984L162.47 56.4844L162.494 55.0625C162.501 54.6912 162.744 54.3259 163.227 54.0441C164.206 53.4734 165.792 53.4734 166.771 54.0441C167.254 54.326 167.498 54.6916 167.505 55.063L167.528 56.4844L169.966 56.4985C170.602 56.5021 171.229 56.6447 171.712 56.9265Z" fill="#C9C7C3" stroke="#9B9996" stroke-width="4"/>
<path d="M160.407 60.8684C160.419 61.5454 160.867 62.2195 161.752 62.7358L161.47 62.9005C160.507 62.3394 160.021 61.6061 160.008 60.8707C158.747 60.8634 157.49 60.5794 156.528 60.0183L156.81 59.8536C157.696 60.3699 158.851 60.6311 160.012 60.6378L160.404 60.6401L160.407 60.8684ZM168.246 62.7359C169.132 62.2196 169.579 61.5455 169.591 60.8685L169.595 60.6401L169.986 60.6379C171.147 60.6312 172.303 60.37 173.188 59.8537C174.981 58.8077 174.981 57.1117 173.188 56.0657C172.303 55.5494 171.147 55.2881 169.986 55.2814L169.595 55.2791L169.591 55.0508C169.579 54.3738 169.131 53.6997 168.246 53.1834C166.453 52.1374 163.545 52.1373 161.752 53.1834C160.867 53.6996 160.419 54.3737 160.407 55.0507L160.403 55.2791L160.012 55.2813C158.851 55.288 157.696 55.5492 156.81 56.0655C155.017 57.1115 155.017 58.8075 156.81 59.8536L156.528 60.0183C154.579 58.8812 154.579 57.0378 156.528 55.9008C157.49 55.3397 158.747 55.0557 160.008 55.0484C160.02 54.313 160.507 53.5798 161.469 53.0187C163.419 51.8817 166.579 51.8817 168.529 53.0187C169.491 53.5799 169.978 54.3131 169.99 55.0485C171.251 55.0558 172.508 55.3398 173.47 55.901C175.419 57.038 175.419 58.8814 173.47 60.0184C172.508 60.5796 171.251 60.8635 169.99 60.8708C169.978 61.6062 169.491 62.3394 168.529 62.9006C166.579 64.0376 163.419 64.0375 161.47 62.9005L161.752 62.7358C163.545 63.7819 166.453 63.7819 168.246 62.7359Z" fill="#DFDDD8"/>
<path d="M161.752 62.7358C160.867 62.2195 160.419 61.5454 160.407 60.8684L160.404 60.6401L160.012 60.6378C158.851 60.6311 157.696 60.3699 156.81 59.8536M161.752 62.7358L161.47 62.9005M161.752 62.7358L161.47 62.9005M161.752 62.7358C163.545 63.7819 166.453 63.7819 168.246 62.7359C169.132 62.2196 169.579 61.5455 169.591 60.8685L169.595 60.6401L169.986 60.6379C171.147 60.6312 172.303 60.37 173.188 59.8537C174.981 58.8077 174.981 57.1117 173.188 56.0657C172.303 55.5494 171.147 55.2881 169.986 55.2814L169.595 55.2791L169.591 55.0508C169.579 54.3738 169.131 53.6997 168.246 53.1834C166.453 52.1374 163.545 52.1373 161.752 53.1834C160.867 53.6996 160.419 54.3737 160.407 55.0507L160.403 55.2791L160.012 55.2813C158.851 55.288 157.696 55.5492 156.81 56.0655C155.017 57.1115 155.017 58.8075 156.81 59.8536M161.47 62.9005C160.507 62.3394 160.021 61.6061 160.008 60.8707C158.747 60.8634 157.49 60.5794 156.528 60.0183M161.47 62.9005C163.419 64.0375 166.579 64.0376 168.529 62.9006C169.491 62.3394 169.978 61.6062 169.99 60.8708C171.251 60.8635 172.508 60.5796 173.47 60.0184C175.419 58.8814 175.419 57.038 173.47 55.901C172.508 55.3398 171.251 55.0558 169.99 55.0485C169.978 54.3131 169.491 53.5799 168.529 53.0187C166.579 51.8817 163.419 51.8817 161.469 53.0187C160.507 53.5798 160.02 54.313 160.008 55.0484C158.747 55.0557 157.49 55.3397 156.528 55.9008C154.579 57.0378 154.579 58.8812 156.528 60.0183M156.528 60.0183L156.81 59.8536M156.528 60.0183L156.81 59.8536" stroke="#9B9996" stroke-width="0.5"/>
<path d="M165.875 57.6358C165.432 57.5534 164.953 57.5562 164.512 57.6428C164.36 57.9063 164.36 58.1924 164.512 58.4559C164.964 58.5445 165.454 58.5443 165.906 58.4559C166.054 58.1982 166.059 57.9195 165.918 57.6608M165.875 57.6358L165.918 57.6608M165.875 57.6358L165.918 57.6608M165.875 57.6358C165.885 57.6377 165.895 57.6407 165.906 57.6428C165.909 57.6489 165.915 57.6547 165.918 57.6608" fill="#C9C7C3" stroke="#9B9996" stroke-width="4"/>
<path d="M165.21 58.768L166.442 58.0493L165.21 57.3306L163.978 58.0493L165.21 58.768ZM166.795 57.9258C166.912 57.994 166.912 58.1047 166.795 58.1729L165.422 58.9739L165.411 58.9801C165.293 59.0421 165.112 59.04 164.998 58.9739L163.625 58.1728C163.508 58.1046 163.508 57.994 163.625 57.9258L164.998 57.1248C165.115 57.0565 165.305 57.0565 165.422 57.1248L166.795 57.9258Z" fill="#DFDDD8" stroke="#9B9996"/>
<path d="M173.472 54.9819C175.421 56.1189 175.421 57.9622 173.472 59.0991C172.51 59.6601 171.253 59.9441 169.992 59.9513C169.98 60.6867 169.493 61.4198 168.531 61.9809C166.582 63.1177 163.421 63.1176 161.472 61.9806C160.51 61.4195 160.023 60.6863 160.011 59.9509C158.75 59.9436 157.493 59.6596 156.531 59.0984C154.582 57.9614 154.582 56.1181 156.531 54.9813C157.493 54.4202 158.75 54.1363 160.01 54.129C160.023 53.3937 160.51 52.6605 161.472 52.0995C163.421 50.9626 166.581 50.9627 168.53 52.0997C169.492 52.6609 169.979 53.394 169.992 54.1294C171.253 54.1367 172.51 54.4208 173.472 54.9819Z" fill="#C9C7C3"/>
<path d="M160.41 59.9486C160.422 60.6256 160.869 61.2997 161.755 61.8159L161.472 61.9806C160.51 61.4195 160.023 60.6863 160.011 59.9509C158.75 59.9436 157.493 59.6596 156.531 59.0984L156.813 58.9338C157.698 59.45 158.854 59.7113 160.015 59.718L160.406 59.7203L160.41 59.9486ZM168.248 61.8162C169.134 61.3 169.581 60.6259 169.593 59.949L169.597 59.7206L169.988 59.7184C171.149 59.7117 172.304 59.4506 173.189 58.9344C174.983 57.8885 174.983 56.1926 173.189 55.1466C172.304 54.6303 171.148 54.3691 169.988 54.3623L169.596 54.36L169.593 54.1317C169.581 53.4548 169.133 52.7807 168.248 52.2644C166.455 51.2184 163.547 51.2183 161.754 52.2642C160.869 52.7804 160.421 53.4544 160.41 54.1313L160.406 54.3597L160.014 54.3619C158.854 54.3686 157.698 54.6298 156.813 55.146C155.02 56.1919 155.02 57.8877 156.813 58.9338L156.531 59.0984C154.582 57.9614 154.582 56.1181 156.531 54.9813C157.493 54.4202 158.75 54.1363 160.01 54.129C160.023 53.3937 160.51 52.6605 161.472 52.0995C163.421 50.9626 166.581 50.9627 168.53 52.0997C169.492 52.6609 169.979 53.394 169.992 54.1294C171.253 54.1367 172.51 54.4208 173.472 54.9819C175.421 56.1189 175.421 57.9622 173.472 59.0991C172.51 59.6601 171.253 59.9441 169.992 59.9513C169.98 60.6867 169.493 61.4198 168.531 61.9809C166.582 63.1177 163.421 63.1176 161.472 61.9806L161.755 61.8159C163.548 62.862 166.455 62.8621 168.248 61.8162Z" fill="#DFDDD8"/>
<path d="M161.755 61.8159C160.869 61.2997 160.422 60.6256 160.41 59.9486L160.406 59.7203L160.015 59.718C158.854 59.7113 157.698 59.45 156.813 58.9338M161.755 61.8159L161.472 61.9806M161.755 61.8159L161.472 61.9806M161.755 61.8159C163.548 62.862 166.455 62.8621 168.248 61.8162C169.134 61.3 169.581 60.6259 169.593 59.949L169.597 59.7206L169.988 59.7184C171.149 59.7117 172.304 59.4506 173.189 58.9344C174.983 57.8885 174.983 56.1926 173.189 55.1466C172.304 54.6303 171.148 54.3691 169.988 54.3623L169.596 54.36L169.593 54.1317C169.581 53.4548 169.133 52.7807 168.248 52.2644C166.455 51.2184 163.547 51.2183 161.754 52.2642C160.869 52.7804 160.421 53.4544 160.41 54.1313L160.406 54.3597L160.014 54.3619C158.854 54.3686 157.698 54.6298 156.813 55.146C155.02 56.1919 155.02 57.8877 156.813 58.9338M161.472 61.9806C160.51 61.4195 160.023 60.6863 160.011 59.9509C158.75 59.9436 157.493 59.6596 156.531 59.0984M161.472 61.9806C163.421 63.1176 166.582 63.1177 168.531 61.9809C169.493 61.4198 169.98 60.6867 169.992 59.9513C171.253 59.9441 172.51 59.6601 173.472 59.0991C175.421 57.9622 175.421 56.1189 173.472 54.9819C172.51 54.4208 171.253 54.1367 169.992 54.1294C169.979 53.394 169.492 52.6609 168.53 52.0997C166.581 50.9627 163.421 50.9626 161.472 52.0995C160.51 52.6605 160.023 53.3937 160.01 54.129C158.75 54.1363 157.493 54.4202 156.531 54.9813C154.582 56.1181 154.582 57.9614 156.531 59.0984M156.531 59.0984L156.813 58.9338M156.531 59.0984L156.813 58.9338" stroke="#DFDDD8"/>
<path d="M163.626 57.2534C163.509 57.1852 163.509 57.0746 163.626 57.0064L164.999 56.2054C165.116 56.1372 165.306 56.1372 165.423 56.2054L166.796 57.0065C166.913 57.0747 166.913 57.1853 166.796 57.2535L165.423 58.0545C165.306 58.1227 165.116 58.1227 164.999 58.0545L163.626 57.2534Z" fill="#C9C7C3"/>
<path d="M163.626 57.2534C163.509 57.1852 163.509 57.0746 163.626 57.0064L164.999 56.2054C165.116 56.1372 165.306 56.1372 165.423 56.2054L166.796 57.0065C166.913 57.0747 166.913 57.1853 166.796 57.2535L165.423 58.0545C165.306 58.1227 165.116 58.1227 164.999 58.0545L163.626 57.2534Z" fill="#C9C7C3"/>
<path d="M165.211 57.8491L166.443 57.1305L165.211 56.4118L163.979 57.1304L165.211 57.8491ZM166.796 57.007C166.913 57.0752 166.913 57.1858 166.796 57.254L165.423 58.055L165.411 58.0612C165.294 58.1231 165.112 58.121 164.999 58.055L163.626 57.2539C163.509 57.1857 163.509 57.0751 163.626 57.0069L164.999 56.2059C165.116 56.1377 165.306 56.1377 165.423 56.206L166.796 57.007Z" fill="#DFDDD8"/>
<path d="M165.211 57.8491L166.443 57.1305L165.211 56.4118L163.979 57.1304L165.211 57.8491ZM166.796 57.007C166.913 57.0752 166.913 57.1858 166.796 57.254L165.423 58.055L165.411 58.0612C165.294 58.1231 165.112 58.121 164.999 58.055L163.626 57.2539C163.509 57.1857 163.509 57.0751 163.626 57.0069L164.999 56.2059C165.116 56.1377 165.306 56.1377 165.423 56.206L166.796 57.007Z" fill="#DFDDD8"/>
<path d="M165.211 57.8491L166.443 57.1305L165.211 56.4118L163.979 57.1304L165.211 57.8491ZM166.796 57.007C166.913 57.0752 166.913 57.1858 166.796 57.254L165.423 58.055L165.411 58.0612C165.294 58.1231 165.112 58.121 164.999 58.055L163.626 57.2539C163.509 57.1857 163.509 57.0751 163.626 57.0069L164.999 56.2059C165.116 56.1377 165.306 56.1377 165.423 56.206L166.796 57.007Z" stroke="#DFDDD8" stroke-width="0.5"/>
</g>
<g filter="url(#filter8_d_99_1546)">
<path d="M192.295 45.3755C192.295 50.71 194.802 55.7961 177.204 59.8723C172.165 61.0394 157.432 64.0607 142.706 57.9521C134.435 53.6401 135.521 51.726 135.521 45.3755C135.521 39.025 148.23 33.877 163.908 33.877C179.585 33.877 192.295 39.025 192.295 45.3755Z" fill="#807D78"/>
<ellipse cx="163.9" cy="43.2193" rx="28.3871" ry="11.4986" fill="#DFDDD8"/>
<ellipse cx="163.9" cy="42.5008" rx="24.7938" ry="9.3426" fill="#9B9996"/>
<ellipse cx="163.9" cy="43.2192" rx="24.7938" ry="8.62394" fill="#C9C7C3"/>
<path d="M170.712 41.9265C171.691 42.4973 171.691 43.4227 170.712 43.9933C170.229 44.2751 169.602 44.4167 168.966 44.4204L166.529 44.4349L166.504 45.8563C166.497 46.2277 166.254 46.5934 165.772 46.8752C164.793 47.4458 163.207 47.4457 162.228 46.8752C161.745 46.5933 161.5 46.2278 161.494 45.8563L161.47 44.4344L159.032 44.4204C158.396 44.4166 157.769 44.2745 157.286 43.9928C156.308 43.422 156.308 42.4966 157.286 41.926C157.77 41.6443 158.396 41.5021 159.032 41.4984L161.47 41.4844L161.494 40.0625C161.501 39.6912 161.744 39.3259 162.227 39.0441C163.206 38.4734 164.792 38.4734 165.771 39.0441C166.254 39.326 166.498 39.6916 166.505 40.063L166.528 41.4844L168.966 41.4985C169.602 41.5021 170.229 41.6447 170.712 41.9265Z" fill="#C9C7C3" stroke="#9B9996" stroke-width="4"/>
<path d="M159.407 45.8684C159.419 46.5454 159.867 47.2195 160.752 47.7358L160.47 47.9005C159.507 47.3394 159.021 46.6061 159.008 45.8707C157.747 45.8634 156.49 45.5794 155.528 45.0183L155.81 44.8536C156.696 45.3699 157.851 45.6311 159.012 45.6378L159.404 45.6401L159.407 45.8684ZM167.246 47.7359C168.132 47.2196 168.579 46.5455 168.591 45.8685L168.595 45.6401L168.986 45.6379C170.147 45.6312 171.303 45.37 172.188 44.8537C173.981 43.8077 173.981 42.1117 172.188 41.0657C171.303 40.5494 170.147 40.2881 168.986 40.2814L168.595 40.2791L168.591 40.0508C168.579 39.3738 168.131 38.6997 167.246 38.1834C165.453 37.1374 162.545 37.1373 160.752 38.1834C159.867 38.6996 159.419 39.3737 159.407 40.0507L159.403 40.2791L159.012 40.2813C157.851 40.288 156.696 40.5492 155.81 41.0655C154.017 42.1115 154.017 43.8075 155.81 44.8536L155.528 45.0183C153.579 43.8812 153.579 42.0378 155.528 40.9008C156.49 40.3397 157.747 40.0557 159.008 40.0484C159.02 39.313 159.507 38.5798 160.469 38.0187C162.419 36.8817 165.579 36.8817 167.529 38.0187C168.491 38.5799 168.978 39.3131 168.99 40.0485C170.251 40.0558 171.508 40.3398 172.47 40.901C174.419 42.038 174.419 43.8814 172.47 45.0184C171.508 45.5796 170.251 45.8635 168.99 45.8708C168.978 46.6062 168.491 47.3394 167.529 47.9006C165.579 49.0376 162.419 49.0375 160.47 47.9005L160.752 47.7358C162.545 48.7819 165.453 48.7819 167.246 47.7359Z" fill="#DFDDD8"/>
<path d="M160.752 47.7358C159.867 47.2195 159.419 46.5454 159.407 45.8684L159.404 45.6401L159.012 45.6378C157.851 45.6311 156.696 45.3699 155.81 44.8536M160.752 47.7358L160.47 47.9005M160.752 47.7358L160.47 47.9005M160.752 47.7358C162.545 48.7819 165.453 48.7819 167.246 47.7359C168.132 47.2196 168.579 46.5455 168.591 45.8685L168.595 45.6401L168.986 45.6379C170.147 45.6312 171.303 45.37 172.188 44.8537C173.981 43.8077 173.981 42.1117 172.188 41.0657C171.303 40.5494 170.147 40.2881 168.986 40.2814L168.595 40.2791L168.591 40.0508C168.579 39.3738 168.131 38.6997 167.246 38.1834C165.453 37.1374 162.545 37.1373 160.752 38.1834C159.867 38.6996 159.419 39.3737 159.407 40.0507L159.403 40.2791L159.012 40.2813C157.851 40.288 156.696 40.5492 155.81 41.0655C154.017 42.1115 154.017 43.8075 155.81 44.8536M160.47 47.9005C159.507 47.3394 159.021 46.6061 159.008 45.8707C157.747 45.8634 156.49 45.5794 155.528 45.0183M160.47 47.9005C162.419 49.0375 165.579 49.0376 167.529 47.9006C168.491 47.3394 168.978 46.6062 168.99 45.8708C170.251 45.8635 171.508 45.5796 172.47 45.0184C174.419 43.8814 174.419 42.038 172.47 40.901C171.508 40.3398 170.251 40.0558 168.99 40.0485C168.978 39.3131 168.491 38.5799 167.529 38.0187C165.579 36.8817 162.419 36.8817 160.469 38.0187C159.507 38.5798 159.02 39.313 159.008 40.0484C157.747 40.0557 156.49 40.3397 155.528 40.9008C153.579 42.0378 153.579 43.8812 155.528 45.0183M155.528 45.0183L155.81 44.8536M155.528 45.0183L155.81 44.8536" stroke="#9B9996" stroke-width="0.5"/>
<path d="M164.875 42.6358C164.432 42.5534 163.953 42.5562 163.512 42.6428C163.36 42.9063 163.36 43.1924 163.512 43.4559C163.964 43.5445 164.454 43.5443 164.906 43.4559C165.054 43.1982 165.059 42.9195 164.918 42.6608M164.875 42.6358L164.918 42.6608M164.875 42.6358L164.918 42.6608M164.875 42.6358C164.885 42.6377 164.895 42.6407 164.906 42.6428C164.909 42.6489 164.915 42.6547 164.918 42.6608" fill="#C9C7C3" stroke="#9B9996" stroke-width="4"/>
<path d="M164.21 43.768L165.442 43.0493L164.21 42.3306L162.978 43.0493L164.21 43.768ZM165.795 42.9258C165.912 42.994 165.912 43.1047 165.795 43.1729L164.422 43.9739L164.411 43.9801C164.293 44.0421 164.112 44.04 163.998 43.9739L162.625 43.1728C162.508 43.1046 162.508 42.994 162.625 42.9258L163.998 42.1248C164.115 42.0565 164.305 42.0565 164.422 42.1248L165.795 42.9258Z" fill="#DFDDD8" stroke="#9B9996"/>
<path d="M172.472 39.9819C174.421 41.1189 174.421 42.9622 172.472 44.0991C171.51 44.6601 170.253 44.9441 168.992 44.9513C168.98 45.6867 168.493 46.4198 167.531 46.9809C165.582 48.1177 162.421 48.1176 160.472 46.9806C159.51 46.4195 159.023 45.6863 159.011 44.9509C157.75 44.9436 156.493 44.6596 155.531 44.0984C153.582 42.9614 153.582 41.1181 155.531 39.9813C156.493 39.4202 157.75 39.1363 159.01 39.129C159.023 38.3937 159.51 37.6605 160.472 37.0995C162.421 35.9626 165.581 35.9627 167.53 37.0997C168.492 37.6609 168.979 38.394 168.992 39.1294C170.253 39.1367 171.51 39.4208 172.472 39.9819Z" fill="#C9C7C3"/>
<path d="M159.41 44.9486C159.422 45.6256 159.869 46.2997 160.755 46.8159L160.472 46.9806C159.51 46.4195 159.023 45.6863 159.011 44.9509C157.75 44.9436 156.493 44.6596 155.531 44.0984L155.813 43.9338C156.698 44.45 157.854 44.7113 159.015 44.718L159.406 44.7203L159.41 44.9486ZM167.248 46.8162C168.134 46.3 168.581 45.6259 168.593 44.949L168.597 44.7206L168.988 44.7184C170.149 44.7117 171.304 44.4506 172.189 43.9344C173.983 42.8885 173.983 41.1926 172.189 40.1466C171.304 39.6303 170.148 39.3691 168.988 39.3623L168.596 39.36L168.593 39.1317C168.581 38.4548 168.133 37.7807 167.248 37.2644C165.455 36.2184 162.547 36.2183 160.754 37.2642C159.869 37.7804 159.421 38.4544 159.41 39.1313L159.406 39.3597L159.014 39.3619C157.854 39.3686 156.698 39.6298 155.813 40.146C154.02 41.1919 154.02 42.8877 155.813 43.9338L155.531 44.0984C153.582 42.9614 153.582 41.1181 155.531 39.9813C156.493 39.4202 157.75 39.1363 159.01 39.129C159.023 38.3937 159.51 37.6605 160.472 37.0995C162.421 35.9626 165.581 35.9627 167.53 37.0997C168.492 37.6609 168.979 38.394 168.992 39.1294C170.253 39.1367 171.51 39.4208 172.472 39.9819C174.421 41.1189 174.421 42.9622 172.472 44.0991C171.51 44.6601 170.253 44.9441 168.992 44.9513C168.98 45.6867 168.493 46.4198 167.531 46.9809C165.582 48.1177 162.421 48.1176 160.472 46.9806L160.755 46.8159C162.548 47.862 165.455 47.8621 167.248 46.8162Z" fill="#DFDDD8"/>
<path d="M160.755 46.8159C159.869 46.2997 159.422 45.6256 159.41 44.9486L159.406 44.7203L159.015 44.718C157.854 44.7113 156.698 44.45 155.813 43.9338M160.755 46.8159L160.472 46.9806M160.755 46.8159L160.472 46.9806M160.755 46.8159C162.548 47.862 165.455 47.8621 167.248 46.8162C168.134 46.3 168.581 45.6259 168.593 44.949L168.597 44.7206L168.988 44.7184C170.149 44.7117 171.304 44.4506 172.189 43.9344C173.983 42.8885 173.983 41.1926 172.189 40.1466C171.304 39.6303 170.148 39.3691 168.988 39.3623L168.596 39.36L168.593 39.1317C168.581 38.4548 168.133 37.7807 167.248 37.2644C165.455 36.2184 162.547 36.2183 160.754 37.2642C159.869 37.7804 159.421 38.4544 159.41 39.1313L159.406 39.3597L159.014 39.3619C157.854 39.3686 156.698 39.6298 155.813 40.146C154.02 41.1919 154.02 42.8877 155.813 43.9338M160.472 46.9806C159.51 46.4195 159.023 45.6863 159.011 44.9509C157.75 44.9436 156.493 44.6596 155.531 44.0984M160.472 46.9806C162.421 48.1176 165.582 48.1177 167.531 46.9809C168.493 46.4198 168.98 45.6867 168.992 44.9513C170.253 44.9441 171.51 44.6601 172.472 44.0991C174.421 42.9622 174.421 41.1189 172.472 39.9819C171.51 39.4208 170.253 39.1367 168.992 39.1294C168.979 38.394 168.492 37.6609 167.53 37.0997C165.581 35.9627 162.421 35.9626 160.472 37.0995C159.51 37.6605 159.023 38.3937 159.01 39.129C157.75 39.1363 156.493 39.4202 155.531 39.9813C153.582 41.1181 153.582 42.9614 155.531 44.0984M155.531 44.0984L155.813 43.9338M155.531 44.0984L155.813 43.9338" stroke="#DFDDD8"/>
<path d="M162.626 42.2534C162.509 42.1852 162.509 42.0746 162.626 42.0064L163.999 41.2054C164.116 41.1372 164.306 41.1372 164.423 41.2054L165.796 42.0065C165.913 42.0747 165.913 42.1853 165.796 42.2535L164.423 43.0545C164.306 43.1227 164.116 43.1227 163.999 43.0545L162.626 42.2534Z" fill="#C9C7C3"/>
<path d="M162.626 42.2534C162.509 42.1852 162.509 42.0746 162.626 42.0064L163.999 41.2054C164.116 41.1372 164.306 41.1372 164.423 41.2054L165.796 42.0065C165.913 42.0747 165.913 42.1853 165.796 42.2535L164.423 43.0545C164.306 43.1227 164.116 43.1227 163.999 43.0545L162.626 42.2534Z" fill="#C9C7C3"/>
<path d="M164.211 42.8491L165.443 42.1305L164.211 41.4118L162.979 42.1304L164.211 42.8491ZM165.796 42.007C165.913 42.0752 165.913 42.1858 165.796 42.254L164.423 43.055L164.411 43.0612C164.294 43.1231 164.112 43.121 163.999 43.055L162.626 42.2539C162.509 42.1857 162.509 42.0751 162.626 42.0069L163.999 41.2059C164.116 41.1377 164.306 41.1377 164.423 41.206L165.796 42.007Z" fill="#DFDDD8"/>
<path d="M164.211 42.8491L165.443 42.1305L164.211 41.4118L162.979 42.1304L164.211 42.8491ZM165.796 42.007C165.913 42.0752 165.913 42.1858 165.796 42.254L164.423 43.055L164.411 43.0612C164.294 43.1231 164.112 43.121 163.999 43.055L162.626 42.2539C162.509 42.1857 162.509 42.0751 162.626 42.0069L163.999 41.2059C164.116 41.1377 164.306 41.1377 164.423 41.206L165.796 42.007Z" fill="#DFDDD8"/>
<path d="M164.211 42.8491L165.443 42.1305L164.211 41.4118L162.979 42.1304L164.211 42.8491ZM165.796 42.007C165.913 42.0752 165.913 42.1858 165.796 42.254L164.423 43.055L164.411 43.0612C164.294 43.1231 164.112 43.121 163.999 43.055L162.626 42.2539C162.509 42.1857 162.509 42.0751 162.626 42.0069L163.999 41.2059C164.116 41.1377 164.306 41.1377 164.423 41.206L165.796 42.007Z" stroke="#DFDDD8" stroke-width="0.5"/>
</g>
<g filter="url(#filter9_d_99_1546)">
<path d="M128.655 60.5296C128.655 65.3528 130.922 69.9513 115.01 73.6367C110.454 74.692 97.1338 77.4237 83.8193 71.9006C76.3412 68.002 77.3227 66.2714 77.3227 60.5296C77.3227 54.7879 88.8137 50.1333 102.989 50.1333C117.164 50.1333 128.655 54.7879 128.655 60.5296Z" fill="#807D78"/>
<ellipse cx="102.981" cy="58.5804" rx="25.6659" ry="10.3963" fill="#DFDDD8"/>
<ellipse cx="102.982" cy="57.9304" rx="22.4171" ry="8.44702" fill="#9B9996"/>
<ellipse cx="102.982" cy="58.5805" rx="22.4171" ry="7.79725" fill="#C9C7C3"/>
</g>
<g filter="url(#filter10_d_99_1546)">
<path d="M134.159 54.2381C134.159 59.0613 136.427 63.6598 120.515 67.3452C115.959 68.4005 102.639 71.1322 89.3242 65.6091C81.846 61.7105 82.8276 59.9799 82.8276 54.2381C82.8276 48.4964 94.3186 43.8418 108.494 43.8418C122.668 43.8418 134.159 48.4964 134.159 54.2381Z" fill="#807D78"/>
<ellipse cx="108.486" cy="52.2889" rx="25.6659" ry="10.3963" fill="#DFDDD8"/>
<ellipse cx="108.486" cy="51.6389" rx="22.4171" ry="8.44702" fill="#9B9996"/>
<ellipse cx="108.486" cy="52.2889" rx="22.4171" ry="7.79725" fill="#C9C7C3"/>
<path d="M113.3 52.1932C113.953 52.5743 113.953 53.192 113.3 53.5731C112.977 53.7613 112.56 53.8565 112.133 53.859L109.695 53.873L109.672 55.2944C109.668 55.5433 109.505 55.7866 109.182 55.9748C108.528 56.3558 107.47 56.3559 106.816 55.9748C106.493 55.7866 106.33 55.5433 106.326 55.2944L106.303 53.873L103.865 53.8589C103.438 53.8565 103.021 53.7613 102.698 53.5731C102.045 53.1919 102.045 52.5742 102.698 52.1932C103.021 52.0049 103.438 51.9098 103.865 51.9073L106.302 51.8938L106.326 50.4719C106.33 50.2231 106.493 49.9797 106.816 49.7915C107.469 49.4105 108.528 49.4105 109.182 49.7915C109.505 49.9798 109.668 50.2231 109.672 50.4719L109.696 51.8938L112.133 51.9074C112.56 51.9098 112.977 52.005 113.3 52.1932Z" fill="#C9C7C3" stroke="#9B9996" stroke-width="4"/>
<path d="M104.173 55.307C104.183 55.8711 104.556 56.4328 105.293 56.863L105.058 57.0003C104.256 56.5327 103.851 55.9217 103.84 55.3089C102.79 55.3028 101.742 55.0662 100.941 54.5986L101.176 54.4614C101.913 54.8916 102.877 55.1092 103.844 55.1148L104.17 55.1167L104.173 55.307ZM110.705 56.8631C111.442 56.4329 111.816 55.8712 111.825 55.3071L111.828 55.1168L112.155 55.1149C113.122 55.1093 114.085 54.8917 114.822 54.4615C116.317 53.5899 116.317 52.1767 114.822 51.3051C114.085 50.8749 113.122 50.6572 112.155 50.6517L111.828 50.6497L111.825 50.4595C111.816 49.8954 111.442 49.3337 110.705 48.9035C109.21 48.0318 106.788 48.0318 105.293 48.9034C104.556 49.3336 104.183 49.8953 104.173 50.4594L104.17 50.6497L103.844 50.6516C102.876 50.6571 101.913 50.8748 101.176 51.305C99.6815 52.1766 99.6816 53.5898 101.176 54.4614L100.941 54.5986C99.3163 53.6512 99.3163 52.1151 100.941 51.1677C101.742 50.7002 102.79 50.4635 103.84 50.4575C103.851 49.8447 104.256 49.2337 105.058 48.7662C106.682 47.8188 109.316 47.8188 110.94 48.7662C111.742 49.2338 112.147 49.8448 112.158 50.4576C113.208 50.4636 114.256 50.7003 115.058 51.1679C116.682 52.1153 116.682 53.6514 115.058 54.5987C114.256 55.0663 113.208 55.3029 112.158 55.309C112.147 55.9218 111.742 56.5327 110.94 57.0003C109.316 57.9477 106.682 57.9477 105.058 57.0003L105.293 56.863C106.788 57.7347 109.211 57.7347 110.705 56.8631Z" fill="#DFDDD8"/>
<path d="M105.293 56.863C104.556 56.4328 104.183 55.8711 104.173 55.307L104.17 55.1167L103.844 55.1148C102.877 55.1092 101.913 54.8916 101.176 54.4614M105.293 56.863L105.058 57.0003M105.293 56.863L105.058 57.0003M105.293 56.863C106.788 57.7347 109.211 57.7347 110.705 56.8631C111.442 56.4329 111.816 55.8712 111.825 55.3071L111.828 55.1168L112.155 55.1149C113.122 55.1093 114.085 54.8917 114.822 54.4615C116.317 53.5899 116.317 52.1767 114.822 51.3051C114.085 50.8749 113.122 50.6572 112.155 50.6517L111.828 50.6497L111.825 50.4595C111.816 49.8954 111.442 49.3337 110.705 48.9035C109.21 48.0318 106.788 48.0318 105.293 48.9034C104.556 49.3336 104.183 49.8953 104.173 50.4594L104.17 50.6497L103.844 50.6516C102.876 50.6571 101.913 50.8748 101.176 51.305C99.6815 52.1766 99.6816 53.5898 101.176 54.4614M105.058 57.0003C104.256 56.5327 103.851 55.9217 103.84 55.3089C102.79 55.3028 101.742 55.0662 100.941 54.5986M105.058 57.0003C106.682 57.9477 109.316 57.9477 110.94 57.0003C111.742 56.5327 112.147 55.9218 112.158 55.309C113.208 55.3029 114.256 55.0663 115.058 54.5987C116.682 53.6514 116.682 52.1153 115.058 51.1679C114.256 50.7003 113.208 50.4636 112.158 50.4576C112.147 49.8448 111.742 49.2338 110.94 48.7662C109.316 47.8188 106.682 47.8188 105.058 48.7662C104.256 49.2337 103.851 49.8447 103.84 50.4575C102.79 50.4635 101.742 50.7002 100.941 51.1677C99.3163 52.1151 99.3163 53.6512 100.941 54.5986M100.941 54.5986L101.176 54.4614M100.941 54.5986L101.176 54.4614" stroke="#9B9996" stroke-width="0.5"/>
<path d="M108.627 53.5668C108.329 53.6026 108.021 53.6027 107.722 53.5668L107.13 53.2214C107.069 53.0473 107.069 52.8677 107.13 52.6937L107.723 52.3477C108.021 52.312 108.328 52.3121 108.626 52.3477L109.22 52.6942C109.281 52.8679 109.281 53.0472 109.22 53.2209L108.627 53.5668Z" fill="#C9C7C3" stroke="#9B9996" stroke-width="4"/>
<path d="M108.175 53.5564L109.202 52.9575L108.175 52.3587L107.148 52.9575L108.175 53.5564ZM109.496 52.8546C109.593 52.9115 109.593 53.0036 109.496 53.0605L108.351 53.7279L108.342 53.7331C108.244 53.7847 108.093 53.783 107.999 53.7279L106.854 53.0604C106.757 53.0036 106.757 52.9114 106.854 52.8546L107.999 52.1871C108.096 52.1303 108.254 52.1303 108.351 52.1871L109.496 52.8546Z" fill="#DFDDD8" stroke="#9B9996"/>
<path d="M115.059 50.4017C116.683 51.3491 116.683 52.885 115.059 53.8323C114.258 54.2998 113.21 54.5364 112.16 54.5424C112.149 55.1552 111.744 55.7661 110.942 56.2336C109.318 57.1808 106.685 57.1807 105.061 56.2334C104.259 55.7658 103.853 55.1548 103.843 54.5421C102.792 54.536 101.745 54.2993 100.943 53.8318C99.3191 52.8844 99.3191 51.3484 100.943 50.4011C101.745 49.9336 102.792 49.697 103.843 49.691C103.853 49.0783 104.259 48.4674 105.06 47.9999C106.684 47.0526 109.318 47.0527 110.942 48.0001C111.743 48.4677 112.149 49.0786 112.16 49.6913C113.21 49.6974 114.258 49.9341 115.059 50.4017Z" fill="#C9C7C3"/>
<path d="M104.176 54.5402C104.185 55.1042 104.558 55.6659 105.296 56.0961L105.061 56.2334C104.259 55.7658 103.853 55.1548 103.843 54.5421C102.792 54.536 101.745 54.2993 100.943 53.8318L101.179 53.6945C101.916 54.1247 102.879 54.3424 103.846 54.348L104.172 54.3499L104.176 54.5402ZM110.707 56.0963C111.444 55.6662 111.818 55.1045 111.827 54.5405L111.83 54.3502L112.157 54.3483C113.124 54.3428 114.087 54.1252 114.824 53.6951C116.318 52.8236 116.318 51.4105 114.824 50.5389C114.086 50.1087 113.123 49.891 112.156 49.8854L111.83 49.8835L111.827 49.6932C111.817 49.1292 111.444 48.5675 110.707 48.1373C109.212 47.2657 106.79 47.2656 105.296 48.1371C104.558 48.5672 104.185 49.1289 104.175 49.6929L104.172 49.8832L103.846 49.8851C102.879 49.8906 101.916 50.1083 101.178 50.5384C99.6843 51.4099 99.6843 52.8229 101.179 53.6945L100.943 53.8318C99.3191 52.8844 99.3191 51.3484 100.943 50.4011C101.745 49.9336 102.792 49.697 103.843 49.691C103.853 49.0783 104.259 48.4674 105.06 47.9999C106.684 47.0526 109.318 47.0527 110.942 48.0001C111.743 48.4677 112.149 49.0786 112.16 49.6913C113.21 49.6974 114.258 49.9341 115.059 50.4017C116.683 51.3491 116.683 52.885 115.059 53.8323C114.258 54.2998 113.21 54.5364 112.16 54.5424C112.149 55.1552 111.744 55.7661 110.942 56.2336C109.318 57.1808 106.685 57.1807 105.061 56.2334L105.296 56.0961C106.79 56.9677 109.213 56.9678 110.707 56.0963Z" fill="#DFDDD8"/>
<path d="M105.296 56.0961C104.558 55.6659 104.185 55.1042 104.176 54.5402L104.172 54.3499L103.846 54.348C102.879 54.3424 101.916 54.1247 101.179 53.6945M105.296 56.0961L105.061 56.2334M105.296 56.0961L105.061 56.2334M105.296 56.0961C106.79 56.9677 109.213 56.9678 110.707 56.0963C111.444 55.6662 111.818 55.1045 111.827 54.5405L111.83 54.3502L112.157 54.3483C113.124 54.3428 114.087 54.1252 114.824 53.6951C116.318 52.8236 116.318 51.4105 114.824 50.5389C114.086 50.1087 113.123 49.891 112.156 49.8854L111.83 49.8835L111.827 49.6932C111.817 49.1292 111.444 48.5675 110.707 48.1373C109.212 47.2657 106.79 47.2656 105.296 48.1371C104.558 48.5672 104.185 49.1289 104.175 49.6929L104.172 49.8832L103.846 49.8851C102.879 49.8906 101.916 50.1083 101.178 50.5384C99.6843 51.4099 99.6843 52.8229 101.179 53.6945M105.061 56.2334C104.259 55.7658 103.853 55.1548 103.843 54.5421C102.792 54.536 101.745 54.2993 100.943 53.8318M105.061 56.2334C106.685 57.1807 109.318 57.1808 110.942 56.2336C111.744 55.7661 112.149 55.1552 112.16 54.5424C113.21 54.5364 114.258 54.2998 115.059 53.8323C116.683 52.885 116.683 51.3491 115.059 50.4017C114.258 49.9341 113.21 49.6974 112.16 49.6913C112.149 49.0786 111.743 48.4677 110.942 48.0001C109.318 47.0527 106.684 47.0526 105.06 47.9999C104.259 48.4674 103.853 49.0783 103.843 49.691C102.792 49.697 101.745 49.9336 100.943 50.4011C99.3191 51.3484 99.3191 52.8844 100.943 53.8318M100.943 53.8318L101.179 53.6945M100.943 53.8318L101.179 53.6945" stroke="#DFDDD8"/>
<path d="M106.855 52.2943C106.758 52.2375 106.758 52.1453 106.855 52.0885L107.999 51.4211C108.097 51.3643 108.255 51.3643 108.352 51.4211L109.497 52.0886C109.594 52.1454 109.594 52.2376 109.497 52.2944L108.352 52.9618C108.255 53.0187 108.097 53.0187 107.999 52.9618L106.855 52.2943Z" fill="#C9C7C3"/>
<path d="M106.855 52.2943C106.758 52.2375 106.758 52.1453 106.855 52.0885L107.999 51.4211C108.097 51.3643 108.255 51.3643 108.352 51.4211L109.497 52.0886C109.594 52.1454 109.594 52.2376 109.497 52.2944L108.352 52.9618C108.255 53.0187 108.097 53.0187 107.999 52.9618L106.855 52.2943Z" fill="#C9C7C3"/>
<path d="M108.176 52.7907L109.203 52.1919L108.176 51.5931L107.149 52.1918L108.176 52.7907ZM109.497 52.089C109.594 52.1459 109.594 52.238 109.497 52.2949L108.353 52.9622L108.343 52.9674C108.245 53.019 108.094 53.0173 108 52.9622L106.855 52.2948C106.758 52.2379 106.758 52.1458 106.855 52.0889L108 51.4215C108.097 51.3647 108.255 51.3647 108.352 51.4215L109.497 52.089Z" fill="#DFDDD8"/>
<path d="M108.176 52.7907L109.203 52.1919L108.176 51.5931L107.149 52.1918L108.176 52.7907ZM109.497 52.089C109.594 52.1459 109.594 52.238 109.497 52.2949L108.353 52.9622L108.343 52.9674C108.245 53.019 108.094 53.0173 108 52.9622L106.855 52.2948C106.758 52.2379 106.758 52.1458 106.855 52.0889L108 51.4215C108.097 51.3647 108.255 51.3647 108.352 51.4215L109.497 52.089Z" fill="#DFDDD8"/>
<path d="M108.176 52.7907L109.203 52.1919L108.176 51.5931L107.149 52.1918L108.176 52.7907ZM109.497 52.089C109.594 52.1459 109.594 52.238 109.497 52.2949L108.353 52.9622L108.343 52.9674C108.245 53.019 108.094 53.0173 108 52.9622L106.855 52.2948C106.758 52.2379 106.758 52.1458 106.855 52.0889L108 51.4215C108.097 51.3647 108.255 51.3647 108.352 51.4215L109.497 52.089Z" stroke="#DFDDD8" stroke-width="0.5"/>
</g>
<g filter="url(#filter11_d_99_1546)">
<path d="M111.752 96.144C111.752 101.743 114.384 107.081 95.913 111.359C90.6242 112.584 75.1617 115.755 59.706 109.344C51.0251 104.818 52.1645 102.809 52.1645 96.144C52.1645 89.4789 65.5036 84.0757 81.9581 84.0757C98.4127 84.0757 111.752 89.4789 111.752 96.144Z" fill="#807D78"/>
<ellipse cx="81.9499" cy="93.8813" rx="29.7936" ry="12.0683" fill="#DFDDD8"/>
<ellipse cx="81.9491" cy="93.1273" rx="26.0223" ry="9.80551" fill="#9B9996"/>
<ellipse cx="81.9491" cy="93.8808" rx="26.0223" ry="9.05124" fill="#C9C7C3"/>
<path d="M87.7124 92.9265C88.6906 93.4973 88.6907 94.4227 87.7124 94.9933C87.2293 95.2751 86.6025 95.4167 85.9656 95.4204L83.5286 95.4349L83.5037 96.8563C83.4975 97.2277 83.2544 97.5934 82.7715 97.8752C81.7933 98.4458 80.2066 98.4457 79.2281 97.8752C78.7449 97.5933 78.5005 97.2278 78.4942 96.8563L78.4702 95.4344L76.0324 95.4204C75.3956 95.4166 74.7695 95.2745 74.2864 94.9928C73.3079 94.422 73.308 93.4966 74.2864 92.926C74.7695 92.6443 75.3958 92.5021 76.0324 92.4984L78.4702 92.4844L78.4942 91.0625C78.5006 90.6912 78.7443 90.3259 79.2273 90.0441C80.2057 89.4734 81.7922 89.4734 82.7707 90.0441C83.2539 90.326 83.4983 90.6916 83.5046 91.063L83.5278 92.4844L85.9656 92.4985C86.6024 92.5021 87.2292 92.6447 87.7124 92.9265Z" fill="#C9C7C3" stroke="#9B9996" stroke-width="4"/>
<path d="M76.4075 96.8684C76.419 97.5454 76.8668 98.2195 77.7519 98.7358L77.4696 98.9005C76.5075 98.3394 76.0206 97.6061 76.0081 96.8707C74.7473 96.8634 73.4902 96.5794 72.5281 96.0183L72.8105 95.8536C73.6956 96.3699 74.8514 96.6311 76.0121 96.6378L76.4036 96.6401L76.4075 96.8684ZM84.2464 98.7359C85.1315 98.2196 85.5793 97.5455 85.5908 96.8685L85.5947 96.6401L85.9862 96.6379C87.1469 96.6312 88.3026 96.37 89.1878 95.8537C90.9812 94.8077 90.9811 93.1117 89.1877 92.0657C88.3026 91.5494 87.1468 91.2881 85.9862 91.2814L85.5947 91.2791L85.5908 91.0508C85.5793 90.3738 85.1314 89.6997 84.2463 89.1834C82.4529 88.1374 79.5452 88.1373 77.7518 89.1834C76.8667 89.6996 76.4188 90.3737 76.4074 91.0507L76.4034 91.2791L76.0119 91.2813C74.8513 91.288 73.6956 91.5492 72.8104 92.0655C71.017 93.1115 71.0171 94.8075 72.8105 95.8536L72.5281 96.0183C70.5788 94.8812 70.5787 93.0378 72.5281 91.9008C73.4901 91.3397 74.7471 91.0557 76.008 91.0484C76.0205 90.313 76.5074 89.5798 77.4695 89.0187C79.4188 87.8817 82.5793 87.8817 84.5286 89.0187C85.4907 89.5799 85.9777 90.3131 85.9901 91.0485C87.251 91.0558 88.508 91.3398 89.4701 91.901C91.4194 93.038 91.4195 94.8814 89.4701 96.0184C88.5081 96.5796 87.251 96.8635 85.9901 96.8708C85.9777 97.6062 85.4908 98.3394 84.5287 98.9006C82.5794 100.038 79.4189 100.038 77.4696 98.9005L77.7519 98.7358C79.5453 99.7819 82.453 99.7819 84.2464 98.7359Z" fill="#DFDDD8"/>
<path d="M77.7519 98.7358C76.8668 98.2195 76.419 97.5454 76.4075 96.8684L76.4036 96.6401L76.0121 96.6378C74.8514 96.6311 73.6956 96.3699 72.8105 95.8536M77.7519 98.7358L77.4696 98.9005M77.7519 98.7358L77.4696 98.9005M77.7519 98.7358C79.5453 99.7819 82.453 99.7819 84.2464 98.7359C85.1315 98.2196 85.5793 97.5455 85.5908 96.8685L85.5947 96.6401L85.9862 96.6379C87.1469 96.6312 88.3026 96.37 89.1878 95.8537C90.9812 94.8077 90.9811 93.1117 89.1877 92.0657C88.3026 91.5494 87.1468 91.2881 85.9862 91.2814L85.5947 91.2791L85.5908 91.0508C85.5793 90.3738 85.1314 89.6997 84.2463 89.1834C82.4529 88.1374 79.5452 88.1373 77.7518 89.1834C76.8667 89.6996 76.4188 90.3737 76.4074 91.0507L76.4034 91.2791L76.0119 91.2813C74.8513 91.288 73.6956 91.5492 72.8104 92.0655C71.017 93.1115 71.0171 94.8075 72.8105 95.8536M77.4696 98.9005C76.5075 98.3394 76.0206 97.6061 76.0081 96.8707C74.7473 96.8634 73.4902 96.5794 72.5281 96.0183M77.4696 98.9005C79.4189 100.038 82.5794 100.038 84.5287 98.9006C85.4908 98.3394 85.9777 97.6062 85.9901 96.8708C87.251 96.8635 88.5081 96.5796 89.4701 96.0184C91.4195 94.8814 91.4194 93.038 89.4701 91.901C88.508 91.3398 87.251 91.0558 85.9901 91.0485C85.9777 90.3131 85.4907 89.5799 84.5286 89.0187C82.5793 87.8817 79.4188 87.8817 77.4695 89.0187C76.5074 89.5798 76.0205 90.313 76.008 91.0484C74.7471 91.0557 73.4901 91.3397 72.5281 91.9008C70.5787 93.0378 70.5788 94.8812 72.5281 96.0183M72.5281 96.0183L72.8105 95.8536M72.5281 96.0183L72.8105 95.8536" stroke="#9B9996" stroke-width="0.5"/>
<path d="M81.8749 93.6358C81.4316 93.5534 80.9532 93.5562 80.5118 93.6428C80.3602 93.9063 80.3602 94.1924 80.5118 94.4559C80.9637 94.5445 81.4538 94.5443 81.9058 94.4559C82.0543 94.1982 82.0594 93.9195 81.9179 93.6608M81.8749 93.6358L81.9179 93.6608M81.8749 93.6358L81.9179 93.6608M81.8749 93.6358C81.8855 93.6377 81.8954 93.6407 81.9058 93.6428C81.9094 93.6489 81.9145 93.6547 81.9179 93.6608" fill="#C9C7C3" stroke="#9B9996" stroke-width="4"/>
<path d="M81.21 94.768L82.4422 94.0493L81.21 93.3306L79.9778 94.0493L81.21 94.768ZM82.7952 93.9258C82.9121 93.994 82.9121 94.1047 82.7952 94.1729L81.4218 94.9739L81.4106 94.9801C81.2931 95.0421 81.1115 95.04 80.9982 94.9739L79.6249 94.1728C79.5079 94.1046 79.5079 93.994 79.6249 93.9258L80.9982 93.1248C81.1152 93.0565 81.3048 93.0565 81.4218 93.1248L82.7952 93.9258Z" fill="#DFDDD8" stroke="#9B9996"/>
<path d="M89.4716 90.9819C91.4209 92.1189 91.4209 93.9622 89.4718 95.0991C88.5098 95.6601 87.2528 95.9441 85.9921 95.9513C85.9796 96.6867 85.4928 97.4198 84.5308 97.9809C82.5817 99.1177 79.4214 99.1176 77.4722 97.9806C76.5101 97.4195 76.0233 96.6863 76.0108 95.9509C74.75 95.9436 73.493 95.6596 72.531 95.0984C70.5817 93.9614 70.5816 92.1181 72.5308 90.9813C73.4927 90.4202 74.7497 90.1363 76.0105 90.129C76.0229 89.3937 76.5098 88.6605 77.4717 88.0995C79.4209 86.9626 82.5812 86.9627 84.5304 88.0997C85.4924 88.6609 85.9794 89.394 85.9919 90.1294C87.2526 90.1367 88.5096 90.4208 89.4716 90.9819Z" fill="#C9C7C3"/>
<path d="M76.4101 95.9486C76.4216 96.6256 76.8694 97.2997 77.7545 97.8159L77.4722 97.9806C76.5101 97.4195 76.0233 96.6863 76.0108 95.9509C74.75 95.9436 73.493 95.6596 72.531 95.0984L72.8133 94.9338C73.6984 95.45 74.8541 95.7113 76.0147 95.718L76.4062 95.7203L76.4101 95.9486ZM84.2485 97.8162C85.1335 97.3 85.5813 96.6259 85.5927 95.949L85.5966 95.7206L85.9881 95.7184C87.1487 95.7117 88.3044 95.4506 89.1894 94.9344C90.9827 93.8885 90.9826 92.1926 89.1893 91.1466C88.3042 90.6303 87.1485 90.3691 85.9879 90.3623L85.5965 90.36L85.5925 90.1317C85.581 89.4548 85.1332 88.7807 84.2481 88.2644C82.4548 87.2184 79.5473 87.2183 77.7541 88.2642C76.869 88.7804 76.4212 89.4544 76.4098 90.1313L76.4059 90.3597L76.0144 90.3619C74.8538 90.3686 73.6982 90.6298 72.8131 91.146C71.0199 92.1919 71.02 93.8877 72.8133 94.9338L72.531 95.0984C70.5817 93.9614 70.5816 92.1181 72.5308 90.9813C73.4927 90.4202 74.7497 90.1363 76.0105 90.129C76.0229 89.3937 76.5098 88.6605 77.4717 88.0995C79.4209 86.9626 82.5812 86.9627 84.5304 88.0997C85.4924 88.6609 85.9794 89.394 85.9919 90.1294C87.2526 90.1367 88.5096 90.4208 89.4716 90.9819C91.4209 92.1189 91.4209 93.9622 89.4718 95.0991C88.5098 95.6601 87.2528 95.9441 85.9921 95.9513C85.9796 96.6867 85.4928 97.4198 84.5308 97.9809C82.5817 99.1177 79.4214 99.1176 77.4722 97.9806L77.7545 97.8159C79.5478 98.862 82.4553 98.8621 84.2485 97.8162Z" fill="#DFDDD8"/>
<path d="M77.7545 97.8159C76.8694 97.2997 76.4216 96.6256 76.4101 95.9486L76.4062 95.7203L76.0147 95.718C74.8541 95.7113 73.6984 95.45 72.8133 94.9338M77.7545 97.8159L77.4722 97.9806M77.7545 97.8159L77.4722 97.9806M77.7545 97.8159C79.5478 98.862 82.4553 98.8621 84.2485 97.8162C85.1335 97.3 85.5813 96.6259 85.5927 95.949L85.5966 95.7206L85.9881 95.7184C87.1487 95.7117 88.3044 95.4506 89.1894 94.9344C90.9827 93.8885 90.9826 92.1926 89.1893 91.1466C88.3042 90.6303 87.1485 90.3691 85.9879 90.3623L85.5965 90.36L85.5925 90.1317C85.581 89.4548 85.1332 88.7807 84.2481 88.2644C82.4548 87.2184 79.5473 87.2183 77.7541 88.2642C76.869 88.7804 76.4212 89.4544 76.4098 90.1313L76.4059 90.3597L76.0144 90.3619C74.8538 90.3686 73.6982 90.6298 72.8131 91.146C71.0199 92.1919 71.02 93.8877 72.8133 94.9338M77.4722 97.9806C76.5101 97.4195 76.0233 96.6863 76.0108 95.9509C74.75 95.9436 73.493 95.6596 72.531 95.0984M77.4722 97.9806C79.4214 99.1176 82.5817 99.1177 84.5308 97.9809C85.4928 97.4198 85.9796 96.6867 85.9921 95.9513C87.2528 95.9441 88.5098 95.6601 89.4718 95.0991C91.4209 93.9622 91.4209 92.1189 89.4716 90.9819C88.5096 90.4208 87.2526 90.1367 85.9919 90.1294C85.9794 89.394 85.4924 88.6609 84.5304 88.0997C82.5812 86.9627 79.4209 86.9626 77.4717 88.0995C76.5098 88.6605 76.0229 89.3937 76.0105 90.129C74.7497 90.1363 73.4927 90.4202 72.5308 90.9813C70.5816 92.1181 70.5817 93.9614 72.531 95.0984M72.531 95.0984L72.8133 94.9338M72.531 95.0984L72.8133 94.9338" stroke="#DFDDD8"/>
<path d="M79.6258 93.2534C79.5089 93.1852 79.5089 93.0746 79.6258 93.0064L80.9991 92.2054C81.116 92.1372 81.3056 92.1372 81.4226 92.2054L82.7959 93.0065C82.9129 93.0747 82.9129 93.1853 82.796 93.2535L81.4227 94.0545C81.3057 94.1227 81.1161 94.1227 80.9992 94.0545L79.6258 93.2534Z" fill="#C9C7C3"/>
<path d="M79.6258 93.2534C79.5089 93.1852 79.5089 93.0746 79.6258 93.0064L80.9991 92.2054C81.116 92.1372 81.3056 92.1372 81.4226 92.2054L82.7959 93.0065C82.9129 93.0747 82.9129 93.1853 82.796 93.2535L81.4227 94.0545C81.3057 94.1227 81.1161 94.1227 80.9992 94.0545L79.6258 93.2534Z" fill="#C9C7C3"/>
<path d="M81.2109 93.8491L82.4429 93.1305L81.2108 92.4118L79.9787 93.1304L81.2109 93.8491ZM82.7959 93.007C82.9128 93.0752 82.9128 93.1858 82.7959 93.254L81.4226 94.055L81.4115 94.0612C81.2939 94.1231 81.1124 94.121 80.9991 94.055L79.6258 93.2539C79.5089 93.1857 79.5088 93.0751 79.6258 93.0069L80.999 92.2059C81.116 92.1377 81.3056 92.1377 81.4226 92.206L82.7959 93.007Z" fill="#DFDDD8"/>
<path d="M81.2109 93.8491L82.4429 93.1305L81.2108 92.4118L79.9787 93.1304L81.2109 93.8491ZM82.7959 93.007C82.9128 93.0752 82.9128 93.1858 82.7959 93.254L81.4226 94.055L81.4115 94.0612C81.2939 94.1231 81.1124 94.121 80.9991 94.055L79.6258 93.2539C79.5089 93.1857 79.5088 93.0751 79.6258 93.0069L80.999 92.2059C81.116 92.1377 81.3056 92.1377 81.4226 92.206L82.7959 93.007Z" fill="#DFDDD8"/>
<path d="M81.2109 93.8491L82.4429 93.1305L81.2108 92.4118L79.9787 93.1304L81.2109 93.8491ZM82.7959 93.007C82.9128 93.0752 82.9128 93.1858 82.7959 93.254L81.4226 94.055L81.4115 94.0612C81.2939 94.1231 81.1124 94.121 80.9991 94.055L79.6258 93.2539C79.5089 93.1857 79.5088 93.0751 79.6258 93.0069L80.999 92.2059C81.116 92.1377 81.3056 92.1377 81.4226 92.206L82.7959 93.007Z" stroke="#DFDDD8" stroke-width="0.5"/>
</g>
<g filter="url(#filter12_d_99_1546)">
<path d="M115.139 80.0832C115.139 85.3356 117.608 90.3433 100.281 94.3567C95.3193 95.5059 80.8136 98.4806 66.3143 92.4661C58.1707 88.2205 59.2396 86.3359 59.2396 80.0832C59.2396 73.8305 71.7532 68.7617 87.1895 68.7617C102.626 68.7617 115.139 73.8305 115.139 80.0832Z" fill="#807D78"/>
<ellipse cx="87.1814" cy="77.9606" rx="27.9499" ry="11.3215" fill="#DFDDD8"/>
<ellipse cx="87.1815" cy="77.2534" rx="24.412" ry="9.19871" fill="#9B9996"/>
<ellipse cx="87.1815" cy="77.9608" rx="24.412" ry="8.49112" fill="#C9C7C3"/>
<path d="M91.7124 76.9265C92.6906 77.4973 92.6907 78.4227 91.7124 78.9933C91.2293 79.2751 90.6025 79.4167 89.9656 79.4204L87.5286 79.4349L87.5037 80.8563C87.4975 81.2277 87.2544 81.5934 86.7715 81.8752C85.7933 82.4458 84.2066 82.4457 83.2281 81.8752C82.7449 81.5933 82.5005 81.2278 82.4942 80.8563L82.4702 79.4344L80.0324 79.4204C79.3956 79.4166 78.7695 79.2745 78.2864 78.9928C77.3079 78.422 77.308 77.4966 78.2864 76.926C78.7695 76.6443 79.3958 76.5021 80.0324 76.4984L82.4702 76.4844L82.4942 75.0625C82.5006 74.6912 82.7443 74.3259 83.2273 74.0441C84.2057 73.4734 85.7922 73.4734 86.7707 74.0441C87.2539 74.326 87.4983 74.6916 87.5046 75.063L87.5278 76.4844L89.9656 76.4985C90.6024 76.5021 91.2292 76.6447 91.7124 76.9265Z" fill="#C9C7C3" stroke="#9B9996" stroke-width="4"/>
<path d="M80.4075 80.8684C80.419 81.5454 80.8668 82.2195 81.7519 82.7358L81.4696 82.9005C80.5075 82.3394 80.0206 81.6061 80.0081 80.8707C78.7473 80.8634 77.4902 80.5794 76.5281 80.0183L76.8105 79.8536C77.6956 80.3699 78.8514 80.6311 80.0121 80.6378L80.4036 80.6401L80.4075 80.8684ZM88.2464 82.7359C89.1315 82.2196 89.5793 81.5455 89.5908 80.8685L89.5947 80.6401L89.9862 80.6379C91.1469 80.6312 92.3026 80.37 93.1878 79.8537C94.9812 78.8077 94.9811 77.1117 93.1877 76.0657C92.3026 75.5494 91.1468 75.2881 89.9862 75.2814L89.5947 75.2791L89.5908 75.0508C89.5793 74.3738 89.1314 73.6997 88.2463 73.1834C86.4529 72.1374 83.5452 72.1373 81.7518 73.1834C80.8667 73.6996 80.4188 74.3737 80.4074 75.0507L80.4034 75.2791L80.0119 75.2813C78.8513 75.288 77.6956 75.5492 76.8104 76.0655C75.017 77.1115 75.0171 78.8075 76.8105 79.8536L76.5281 80.0183C74.5788 78.8812 74.5787 77.0378 76.5281 75.9008C77.4901 75.3397 78.7471 75.0557 80.008 75.0484C80.0205 74.313 80.5074 73.5798 81.4695 73.0187C83.4188 71.8817 86.5793 71.8817 88.5286 73.0187C89.4907 73.5799 89.9777 74.3131 89.9901 75.0485C91.251 75.0558 92.508 75.3398 93.4701 75.901C95.4194 77.038 95.4195 78.8814 93.4701 80.0184C92.5081 80.5796 91.251 80.8635 89.9901 80.8708C89.9777 81.6062 89.4908 82.3394 88.5287 82.9006C86.5794 84.0376 83.4189 84.0375 81.4696 82.9005L81.7519 82.7358C83.5453 83.7819 86.453 83.7819 88.2464 82.7359Z" fill="#DFDDD8"/>
<path d="M81.7519 82.7358C80.8668 82.2195 80.419 81.5454 80.4075 80.8684L80.4036 80.6401L80.0121 80.6378C78.8514 80.6311 77.6956 80.3699 76.8105 79.8536M81.7519 82.7358L81.4696 82.9005M81.7519 82.7358L81.4696 82.9005M81.7519 82.7358C83.5453 83.7819 86.453 83.7819 88.2464 82.7359C89.1315 82.2196 89.5793 81.5455 89.5908 80.8685L89.5947 80.6401L89.9862 80.6379C91.1469 80.6312 92.3026 80.37 93.1878 79.8537C94.9812 78.8077 94.9811 77.1117 93.1877 76.0657C92.3026 75.5494 91.1468 75.2881 89.9862 75.2814L89.5947 75.2791L89.5908 75.0508C89.5793 74.3738 89.1314 73.6997 88.2463 73.1834C86.4529 72.1374 83.5452 72.1373 81.7518 73.1834C80.8667 73.6996 80.4188 74.3737 80.4074 75.0507L80.4034 75.2791L80.0119 75.2813C78.8513 75.288 77.6956 75.5492 76.8104 76.0655C75.017 77.1115 75.0171 78.8075 76.8105 79.8536M81.4696 82.9005C80.5075 82.3394 80.0206 81.6061 80.0081 80.8707C78.7473 80.8634 77.4902 80.5794 76.5281 80.0183M81.4696 82.9005C83.4189 84.0375 86.5794 84.0376 88.5287 82.9006C89.4908 82.3394 89.9777 81.6062 89.9901 80.8708C91.251 80.8635 92.5081 80.5796 93.4701 80.0184C95.4195 78.8814 95.4194 77.038 93.4701 75.901C92.508 75.3398 91.251 75.0558 89.9901 75.0485C89.9777 74.3131 89.4907 73.5799 88.5286 73.0187C86.5793 71.8817 83.4188 71.8817 81.4695 73.0187C80.5074 73.5798 80.0205 74.313 80.008 75.0484C78.7471 75.0557 77.4901 75.3397 76.5281 75.9008C74.5787 77.0378 74.5788 78.8812 76.5281 80.0183M76.5281 80.0183L76.8105 79.8536M76.5281 80.0183L76.8105 79.8536" stroke="#9B9996" stroke-width="0.5"/>
<path d="M85.8749 77.6358C85.4316 77.5534 84.9532 77.5562 84.5118 77.6428C84.3602 77.9063 84.3602 78.1924 84.5118 78.4559C84.9637 78.5445 85.4538 78.5443 85.9058 78.4559C86.0543 78.1982 86.0594 77.9195 85.9179 77.6608M85.8749 77.6358L85.9179 77.6608M85.8749 77.6358L85.9179 77.6608M85.8749 77.6358C85.8855 77.6377 85.8954 77.6407 85.9058 77.6428C85.9094 77.6489 85.9145 77.6547 85.9179 77.6608" fill="#C9C7C3" stroke="#9B9996" stroke-width="4"/>
<path d="M85.21 78.768L86.4422 78.0493L85.21 77.3306L83.9778 78.0493L85.21 78.768ZM86.7952 77.9258C86.9121 77.994 86.9121 78.1047 86.7952 78.1729L85.4218 78.9739L85.4106 78.9801C85.2931 79.0421 85.1115 79.04 84.9982 78.9739L83.6249 78.1728C83.5079 78.1046 83.5079 77.994 83.6249 77.9258L84.9982 77.1248C85.1152 77.0565 85.3048 77.0565 85.4218 77.1248L86.7952 77.9258Z" fill="#DFDDD8" stroke="#9B9996"/>
<path d="M93.4716 74.9819C95.4209 76.1189 95.4209 77.9622 93.4718 79.0991C92.5098 79.6601 91.2528 79.9441 89.9921 79.9513C89.9796 80.6867 89.4928 81.4198 88.5308 81.9809C86.5817 83.1177 83.4214 83.1176 81.4722 81.9806C80.5101 81.4195 80.0233 80.6863 80.0108 79.9509C78.75 79.9436 77.493 79.6596 76.531 79.0984C74.5817 77.9614 74.5816 76.1181 76.5308 74.9813C77.4927 74.4202 78.7497 74.1363 80.0105 74.129C80.0229 73.3937 80.5098 72.6605 81.4717 72.0995C83.4209 70.9626 86.5812 70.9627 88.5304 72.0997C89.4924 72.6609 89.9794 73.394 89.9919 74.1294C91.2526 74.1367 92.5096 74.4208 93.4716 74.9819Z" fill="#C9C7C3"/>
<path d="M80.4101 79.9486C80.4216 80.6256 80.8694 81.2997 81.7545 81.8159L81.4722 81.9806C80.5101 81.4195 80.0233 80.6863 80.0108 79.9509C78.75 79.9436 77.493 79.6596 76.531 79.0984L76.8133 78.9338C77.6984 79.45 78.8541 79.7113 80.0147 79.718L80.4062 79.7203L80.4101 79.9486ZM88.2485 81.8162C89.1335 81.3 89.5813 80.6259 89.5927 79.949L89.5966 79.7206L89.9881 79.7184C91.1487 79.7117 92.3044 79.4506 93.1894 78.9344C94.9827 77.8885 94.9826 76.1926 93.1893 75.1466C92.3042 74.6303 91.1485 74.3691 89.9879 74.3623L89.5965 74.36L89.5925 74.1317C89.581 73.4548 89.1332 72.7807 88.2481 72.2644C86.4548 71.2184 83.5473 71.2183 81.7541 72.2642C80.869 72.7804 80.4212 73.4544 80.4098 74.1313L80.4059 74.3597L80.0144 74.3619C78.8538 74.3686 77.6982 74.6298 76.8131 75.146C75.0199 76.1919 75.02 77.8877 76.8133 78.9338L76.531 79.0984C74.5817 77.9614 74.5816 76.1181 76.5308 74.9813C77.4927 74.4202 78.7497 74.1363 80.0105 74.129C80.0229 73.3937 80.5098 72.6605 81.4717 72.0995C83.4209 70.9626 86.5812 70.9627 88.5304 72.0997C89.4924 72.6609 89.9794 73.394 89.9919 74.1294C91.2526 74.1367 92.5096 74.4208 93.4716 74.9819C95.4209 76.1189 95.4209 77.9622 93.4718 79.0991C92.5098 79.6601 91.2528 79.9441 89.9921 79.9513C89.9796 80.6867 89.4928 81.4198 88.5308 81.9809C86.5817 83.1177 83.4214 83.1176 81.4722 81.9806L81.7545 81.8159C83.5478 82.862 86.4553 82.8621 88.2485 81.8162Z" fill="#DFDDD8"/>
<path d="M81.7545 81.8159C80.8694 81.2997 80.4216 80.6256 80.4101 79.9486L80.4062 79.7203L80.0147 79.718C78.8541 79.7113 77.6984 79.45 76.8133 78.9338M81.7545 81.8159L81.4722 81.9806M81.7545 81.8159L81.4722 81.9806M81.7545 81.8159C83.5478 82.862 86.4553 82.8621 88.2485 81.8162C89.1335 81.3 89.5813 80.6259 89.5927 79.949L89.5966 79.7206L89.9881 79.7184C91.1487 79.7117 92.3044 79.4506 93.1894 78.9344C94.9827 77.8885 94.9826 76.1926 93.1893 75.1466C92.3042 74.6303 91.1485 74.3691 89.9879 74.3623L89.5965 74.36L89.5925 74.1317C89.581 73.4548 89.1332 72.7807 88.2481 72.2644C86.4548 71.2184 83.5473 71.2183 81.7541 72.2642C80.869 72.7804 80.4212 73.4544 80.4098 74.1313L80.4059 74.3597L80.0144 74.3619C78.8538 74.3686 77.6982 74.6298 76.8131 75.146C75.0199 76.1919 75.02 77.8877 76.8133 78.9338M81.4722 81.9806C80.5101 81.4195 80.0233 80.6863 80.0108 79.9509C78.75 79.9436 77.493 79.6596 76.531 79.0984M81.4722 81.9806C83.4214 83.1176 86.5817 83.1177 88.5308 81.9809C89.4928 81.4198 89.9796 80.6867 89.9921 79.9513C91.2528 79.9441 92.5098 79.6601 93.4718 79.0991C95.4209 77.9622 95.4209 76.1189 93.4716 74.9819C92.5096 74.4208 91.2526 74.1367 89.9919 74.1294C89.9794 73.394 89.4924 72.6609 88.5304 72.0997C86.5812 70.9627 83.4209 70.9626 81.4717 72.0995C80.5098 72.6605 80.0229 73.3937 80.0105 74.129C78.7497 74.1363 77.4927 74.4202 76.5308 74.9813C74.5816 76.1181 74.5817 77.9614 76.531 79.0984M76.531 79.0984L76.8133 78.9338M76.531 79.0984L76.8133 78.9338" stroke="#DFDDD8"/>
<path d="M83.6258 77.2534C83.5089 77.1852 83.5089 77.0746 83.6258 77.0064L84.9991 76.2054C85.116 76.1372 85.3056 76.1372 85.4226 76.2054L86.7959 77.0065C86.9129 77.0747 86.9129 77.1853 86.796 77.2535L85.4227 78.0545C85.3057 78.1227 85.1161 78.1227 84.9992 78.0545L83.6258 77.2534Z" fill="#C9C7C3"/>
<path d="M83.6258 77.2534C83.5089 77.1852 83.5089 77.0746 83.6258 77.0064L84.9991 76.2054C85.116 76.1372 85.3056 76.1372 85.4226 76.2054L86.7959 77.0065C86.9129 77.0747 86.9129 77.1853 86.796 77.2535L85.4227 78.0545C85.3057 78.1227 85.1161 78.1227 84.9992 78.0545L83.6258 77.2534Z" fill="#C9C7C3"/>
<path d="M85.2109 77.8491L86.4429 77.1305L85.2108 76.4118L83.9787 77.1304L85.2109 77.8491ZM86.7959 77.007C86.9128 77.0752 86.9128 77.1858 86.7959 77.254L85.4226 78.055L85.4115 78.0612C85.2939 78.1231 85.1124 78.121 84.9991 78.055L83.6258 77.2539C83.5089 77.1857 83.5088 77.0751 83.6258 77.0069L84.999 76.2059C85.116 76.1377 85.3056 76.1377 85.4226 76.206L86.7959 77.007Z" fill="#DFDDD8"/>
<path d="M85.2109 77.8491L86.4429 77.1305L85.2108 76.4118L83.9787 77.1304L85.2109 77.8491ZM86.7959 77.007C86.9128 77.0752 86.9128 77.1858 86.7959 77.254L85.4226 78.055L85.4115 78.0612C85.2939 78.1231 85.1124 78.121 84.9991 78.055L83.6258 77.2539C83.5089 77.1857 83.5088 77.0751 83.6258 77.0069L84.999 76.2059C85.116 76.1377 85.3056 76.1377 85.4226 76.206L86.7959 77.007Z" fill="#DFDDD8"/>
<path d="M85.2109 77.8491L86.4429 77.1305L85.2108 76.4118L83.9787 77.1304L85.2109 77.8491ZM86.7959 77.007C86.9128 77.0752 86.9128 77.1858 86.7959 77.254L85.4226 78.055L85.4115 78.0612C85.2939 78.1231 85.1124 78.121 84.9991 78.055L83.6258 77.2539C83.5089 77.1857 83.5088 77.0751 83.6258 77.0069L84.999 76.2059C85.116 76.1377 85.3056 76.1377 85.4226 76.206L86.7959 77.007Z" stroke="#DFDDD8" stroke-width="0.5"/>
</g>
<g filter="url(#filter13_d_99_1546)">
<path d="M147.05 98.3065C145.06 103.77 145.73 109.914 126.187 107.523C120.591 106.838 104.376 104.436 91.5738 92.687C84.712 85.1856 86.5379 83.6303 88.9069 77.1267C91.276 70.6232 106.212 70.0923 122.268 75.9409C138.324 81.7895 149.419 91.803 147.05 98.3065Z" fill="#807D78"/>
<ellipse cx="118.774" cy="85.5058" rx="30.9401" ry="12.5327" transform="rotate(20.0153 118.774 85.5058)" fill="#DFDDD8"/>
<ellipse cx="119.043" cy="84.7698" rx="27.0236" ry="10.1828" transform="rotate(20.0153 119.043 84.7698)" fill="#9B9996"/>
<ellipse cx="118.774" cy="85.5055" rx="27.0236" ry="9.39952" transform="rotate(20.0153 118.774 85.5055)" fill="#C9C7C3"/>
<path d="M124.296 87.8982C124.93 88.8372 124.528 89.6708 123.399 89.7599C122.841 89.8038 122.215 89.6592 121.64 89.3858L119.438 88.3404L118.798 89.6099C118.632 89.9417 118.254 90.1656 117.696 90.2096C116.567 90.2987 115.138 89.6095 114.505 88.6706C114.192 88.2068 114.13 87.7714 114.286 87.434L114.882 86.1428L112.692 85.0713C112.12 84.7914 111.618 84.3914 111.305 83.9278C110.672 82.9887 111.074 82.1552 112.203 82.0662C112.761 82.0223 113.387 82.1662 113.962 82.4394L116.163 83.4856L116.803 82.2153C116.97 81.8836 117.348 81.6604 117.905 81.6164C119.035 81.5273 120.464 82.2164 121.097 83.1555C121.41 83.6193 121.471 84.0547 121.316 84.392L120.719 85.6824L122.909 86.7539C123.481 87.0338 123.983 87.4345 124.296 87.8982Z" fill="#C9C7C3" stroke="#9B9996" stroke-width="4"/>
<path d="M112.401 86.5386C112.118 87.1534 112.228 87.9551 112.801 88.8046L112.475 88.8303C111.852 87.907 111.732 87.035 112.041 86.3672C110.908 85.813 109.899 85.0111 109.276 84.0878L109.602 84.0621C110.175 84.9116 111.103 85.6489 112.145 86.1591L112.497 86.3312L112.401 86.5386ZM118.651 91.6255C119.673 91.5449 120.369 91.1322 120.673 90.5274L120.776 90.3234L121.129 90.4914C122.178 90.9895 123.332 91.2563 124.354 91.1757C126.424 91.0124 127.16 89.4848 125.999 87.7636C125.426 86.9141 124.498 86.1768 123.456 85.6666L123.104 85.4945L123.2 85.2871C123.484 84.6724 123.373 83.8706 122.8 83.0211C121.639 81.2999 119.02 80.037 116.95 80.2002C115.929 80.2808 115.232 80.6935 114.928 81.2983L114.825 81.5022L114.472 81.3342C113.423 80.8362 112.269 80.5695 111.247 80.65C109.178 80.8133 108.441 82.3409 109.602 84.0621L109.276 84.0878C108.014 82.217 108.815 80.5565 111.065 80.379C112.175 80.2914 113.431 80.5816 114.569 81.1227C114.9 80.4657 115.657 80.0168 116.767 79.9292C119.017 79.7518 121.864 81.1245 123.126 82.9954C123.749 83.9187 123.869 84.7907 123.561 85.4585C124.693 86.0127 125.702 86.8146 126.325 87.7379C127.587 89.6088 126.786 91.2692 124.537 91.4467C123.426 91.5343 122.171 91.244 121.032 90.7029C120.701 91.36 119.944 91.8089 118.834 91.8965C116.584 92.0739 113.737 90.7012 112.475 88.8303L112.801 88.8046C113.962 90.5258 116.581 91.7888 118.651 91.6255Z" fill="#DFDDD8"/>
<path d="M112.801 88.8046C112.228 87.9551 112.118 87.1534 112.401 86.5386L112.497 86.3312L112.145 86.1591C111.103 85.6489 110.175 84.9116 109.602 84.0621M112.801 88.8046L112.475 88.8303M112.801 88.8046L112.475 88.8303M112.801 88.8046C113.962 90.5258 116.581 91.7888 118.651 91.6255C119.673 91.5449 120.369 91.1322 120.673 90.5274L120.776 90.3234L121.129 90.4914C122.178 90.9895 123.332 91.2563 124.354 91.1757C126.424 91.0124 127.16 89.4848 125.999 87.7636C125.426 86.9141 124.498 86.1768 123.456 85.6666L123.104 85.4945L123.2 85.2871C123.484 84.6724 123.373 83.8706 122.8 83.0211C121.639 81.2999 119.02 80.037 116.95 80.2002C115.929 80.2808 115.232 80.6935 114.928 81.2983L114.825 81.5022L114.472 81.3342C113.423 80.8362 112.269 80.5695 111.247 80.65C109.178 80.8133 108.441 82.3409 109.602 84.0621M112.475 88.8303C111.852 87.907 111.732 87.035 112.041 86.3672C110.908 85.813 109.899 85.0111 109.276 84.0878M112.475 88.8303C113.737 90.7012 116.584 92.0739 118.834 91.8965C119.944 91.8089 120.701 91.36 121.032 90.7029C122.171 91.244 123.426 91.5343 124.537 91.4467C126.786 91.2692 127.587 89.6088 126.325 87.7379C125.702 86.8146 124.693 86.0127 123.561 85.4585C123.869 84.7907 123.749 83.9187 123.126 82.9954C121.864 81.1245 119.017 79.7518 116.767 79.9292C115.657 80.0168 114.9 80.4657 114.569 81.1227C113.431 80.5816 112.175 80.2914 111.065 80.379C108.815 80.5565 108.014 82.217 109.276 84.0878M109.276 84.0878L109.602 84.0621M109.276 84.0878L109.602 84.0621" stroke="#9B9996" stroke-width="0.5"/>
<path d="M118.73 86.0015C118.367 85.7348 117.935 85.5294 117.499 85.4157C117.248 85.5872 117.124 85.8449 117.146 86.1481C117.515 86.4243 117.956 86.6369 118.402 86.7536C118.647 86.586 118.773 86.3371 118.758 86.0427M118.73 86.0015L118.758 86.0427M118.73 86.0015L118.758 86.0427M118.73 86.0015C118.739 86.0078 118.746 86.0148 118.755 86.0212C118.755 86.0283 118.758 86.0357 118.758 86.0427" fill="#C9C7C3" stroke="#9B9996" stroke-width="4"/>
<path d="M117.639 86.7326L119.061 86.6204L118.264 85.4378L116.842 85.55L117.639 86.7326ZM119.433 86.6624C119.509 86.7747 119.461 86.8743 119.326 86.885L117.741 87.01L117.728 87.0107C117.595 87.0155 117.433 86.9348 117.359 86.826L116.47 85.5079C116.394 85.3957 116.442 85.2961 116.577 85.2854L118.162 85.1604C118.297 85.1497 118.468 85.2321 118.544 85.3444L119.433 86.6624Z" fill="#DFDDD8" stroke="#9B9996"/>
<path d="M126.718 86.9085C127.98 88.7793 127.18 90.4397 124.93 90.6171C123.82 90.7046 122.564 90.4144 121.426 89.8733C121.095 90.5303 120.338 90.9792 119.228 91.0668C116.978 91.2442 114.132 89.8714 112.87 88.0006C112.247 87.0773 112.127 86.2054 112.435 85.5376C111.303 84.9834 110.294 84.1816 109.671 83.2583C108.409 81.3875 109.21 79.7271 111.459 79.5497C112.569 79.4622 113.825 79.7523 114.964 80.2935C115.294 79.6365 116.051 79.1876 117.161 79.1C119.411 78.9226 122.257 80.2954 123.519 82.1662C124.142 83.0895 124.262 83.9614 123.954 84.6292C125.087 85.1834 126.095 85.9852 126.718 86.9085Z" fill="#C9C7C3"/>
<path d="M112.796 85.709C112.512 86.3237 112.623 87.1255 113.196 87.9749L112.87 88.0006C112.247 87.0773 112.127 86.2054 112.435 85.5376C111.303 84.9834 110.294 84.1816 109.671 83.2583L109.997 83.2326C110.57 84.0821 111.497 84.8194 112.54 85.3295L112.891 85.5016L112.796 85.709ZM119.045 90.7958C120.066 90.7152 120.763 90.3026 121.067 89.6978L121.17 89.4938L121.523 89.6618C122.571 90.1599 123.726 90.4266 124.747 90.3461C126.817 90.1829 127.553 88.6553 126.392 86.9342C125.819 86.0847 124.892 85.3474 123.849 84.8373L123.498 84.6652L123.593 84.4578C123.877 83.8431 123.766 83.0413 123.193 82.1919C122.032 80.4707 119.414 79.2078 117.344 79.371C116.323 79.4516 115.627 79.8642 115.322 80.469L115.22 80.6729L114.866 80.505C113.818 80.0069 112.663 79.7402 111.642 79.8207C109.572 79.9839 108.836 81.5115 109.997 83.2326L109.671 83.2583C108.409 81.3875 109.21 79.7271 111.459 79.5497C112.569 79.4622 113.825 79.7523 114.964 80.2935C115.294 79.6365 116.051 79.1876 117.161 79.1C119.411 78.9226 122.257 80.2954 123.519 82.1662C124.142 83.0895 124.262 83.9614 123.954 84.6292C125.087 85.1834 126.095 85.9852 126.718 86.9085C127.98 88.7793 127.18 90.4397 124.93 90.6171C123.82 90.7046 122.564 90.4144 121.426 89.8733C121.095 90.5303 120.338 90.9792 119.228 91.0668C116.978 91.2442 114.132 89.8714 112.87 88.0006L113.196 87.9749C114.357 89.6961 116.976 90.959 119.045 90.7958Z" fill="#DFDDD8"/>
<path d="M113.196 87.9749C112.623 87.1255 112.512 86.3237 112.796 85.709L112.891 85.5016L112.54 85.3295C111.497 84.8194 110.57 84.0821 109.997 83.2326M113.196 87.9749L112.87 88.0006M113.196 87.9749L112.87 88.0006M113.196 87.9749C114.357 89.6961 116.976 90.959 119.045 90.7958C120.066 90.7152 120.763 90.3026 121.067 89.6978L121.17 89.4938L121.523 89.6618C122.571 90.1599 123.726 90.4266 124.747 90.3461C126.817 90.1829 127.553 88.6553 126.392 86.9342C125.819 86.0847 124.892 85.3474 123.849 84.8373L123.498 84.6652L123.593 84.4578C123.877 83.8431 123.766 83.0413 123.193 82.1919C122.032 80.4707 119.414 79.2078 117.344 79.371C116.323 79.4516 115.627 79.8642 115.322 80.469L115.22 80.6729L114.866 80.505C113.818 80.0069 112.663 79.7402 111.642 79.8207C109.572 79.9839 108.836 81.5115 109.997 83.2326M112.87 88.0006C112.247 87.0773 112.127 86.2054 112.435 85.5376C111.303 84.9834 110.294 84.1816 109.671 83.2583M112.87 88.0006C114.132 89.8714 116.978 91.2442 119.228 91.0668C120.338 90.9792 121.095 90.5303 121.426 89.8733C122.564 90.4144 123.82 90.7046 124.93 90.6171C127.18 90.4397 127.98 88.7793 126.718 86.9085C126.095 85.9852 125.087 85.1834 123.954 84.6292C124.262 83.9614 124.142 83.0895 123.519 82.1662C122.257 80.2954 119.411 78.9226 117.161 79.1C116.051 79.1876 115.294 79.6365 114.964 80.2935C113.825 79.7523 112.569 79.4622 111.459 79.5497C109.21 79.7271 108.409 81.3875 109.671 83.2583M109.671 83.2583L109.997 83.2326M109.671 83.2583L109.997 83.2326" stroke="#DFDDD8"/>
<path d="M116.863 84.6783C116.787 84.5661 116.835 84.4665 116.97 84.4558L118.555 84.3308C118.69 84.3202 118.861 84.4026 118.936 84.5148L119.825 85.8329C119.901 85.9451 119.853 86.0447 119.718 86.0554L118.133 86.1804C117.998 86.191 117.827 86.1086 117.752 85.9964L116.863 84.6783Z" fill="#C9C7C3"/>
<path d="M116.863 84.6783C116.787 84.5661 116.835 84.4665 116.97 84.4558L118.555 84.3308C118.69 84.3202 118.861 84.4026 118.936 84.5148L119.825 85.8329C119.901 85.9451 119.853 86.0447 119.718 86.0554L118.133 86.1804C117.998 86.191 117.827 86.1086 117.752 85.9964L116.863 84.6783Z" fill="#C9C7C3"/>
<path d="M118.032 85.9031L119.453 85.791L118.656 84.6084L117.234 84.7206L118.032 85.9031ZM119.825 85.833C119.901 85.9453 119.853 86.0449 119.718 86.0555L118.133 86.1805L118.12 86.1813C117.987 86.186 117.825 86.1053 117.751 85.9966L116.862 84.6785C116.787 84.5663 116.835 84.4667 116.97 84.456L118.554 84.331C118.689 84.3204 118.86 84.4027 118.936 84.515L119.825 85.833Z" fill="#DFDDD8"/>
<path d="M118.032 85.9031L119.453 85.791L118.656 84.6084L117.234 84.7206L118.032 85.9031ZM119.825 85.833C119.901 85.9453 119.853 86.0449 119.718 86.0555L118.133 86.1805L118.12 86.1813C117.987 86.186 117.825 86.1053 117.751 85.9966L116.862 84.6785C116.787 84.5663 116.835 84.4667 116.97 84.456L118.554 84.331C118.689 84.3204 118.86 84.4027 118.936 84.515L119.825 85.833Z" fill="#DFDDD8"/>
<path d="M118.032 85.9031L119.453 85.791L118.656 84.6084L117.234 84.7206L118.032 85.9031ZM119.825 85.833C119.901 85.9453 119.853 86.0449 119.718 86.0555L118.133 86.1805L118.12 86.1813C117.987 86.186 117.825 86.1053 117.751 85.9966L116.862 84.6785C116.787 84.5663 116.835 84.4667 116.97 84.456L118.554 84.331C118.689 84.3204 118.86 84.4027 118.936 84.515L119.825 85.833Z" stroke="#DFDDD8" stroke-width="0.5"/>
</g>
<defs>
<filter id="filter0_d_99_1546" x="0" y="58.1934" width="64.3115" height="34.7559" filterUnits="userSpaceOnUse" color-interpolation-filters="sRGB">
<feFlood flood-opacity="0" result="BackgroundImageFix"/>
<feColorMatrix in="SourceAlpha" type="matrix" values="0 0 0 0 0 0 0 0 0 0 0 0 0 0 0 0 0 0 127 0" result="hardAlpha"/>
<feOffset/>
<feGaussianBlur stdDeviation="0.5"/>
<feComposite in2="hardAlpha" operator="out"/>
<feColorMatrix type="matrix" values="0 0 0 0 0 0 0 0 0 0 0 0 0 0 0 0 0 0 0.1 0"/>
<feBlend mode="normal" in2="BackgroundImageFix" result="effect1_dropShadow_99_1546"/>
<feBlend mode="normal" in="SourceGraphic" in2="effect1_dropShadow_99_1546" result="shape"/>
</filter>
<filter id="filter1_d_99_1546" x="1.57324" y="45.6108" width="64.3115" height="34.7563" filterUnits="userSpaceOnUse" color-interpolation-filters="sRGB">
<feFlood flood-opacity="0" result="BackgroundImageFix"/>
<feColorMatrix in="SourceAlpha" type="matrix" values="0 0 0 0 0 0 0 0 0 0 0 0 0 0 0 0 0 0 127 0" result="hardAlpha"/>
<feOffset/>
<feGaussianBlur stdDeviation="0.5"/>
<feComposite in2="hardAlpha" operator="out"/>
<feColorMatrix type="matrix" values="0 0 0 0 0 0 0 0 0 0 0 0 0 0 0 0 0 0 0.1 0"/>
<feBlend mode="normal" in2="BackgroundImageFix" result="effect1_dropShadow_99_1546"/>
<feBlend mode="normal" in="SourceGraphic" in2="effect1_dropShadow_99_1546" result="shape"/>
</filter>
<filter id="filter2_d_99_1546" x="10.2227" y="34.6011" width="64.3115" height="34.7563" filterUnits="userSpaceOnUse" color-interpolation-filters="sRGB">
<feFlood flood-opacity="0" result="BackgroundImageFix"/>
<feColorMatrix in="SourceAlpha" type="matrix" values="0 0 0 0 0 0 0 0 0 0 0 0 0 0 0 0 0 0 127 0" result="hardAlpha"/>
<feOffset/>
<feGaussianBlur stdDeviation="0.5"/>
<feComposite in2="hardAlpha" operator="out"/>
<feColorMatrix type="matrix" values="0 0 0 0 0 0 0 0 0 0 0 0 0 0 0 0 0 0 0.1 0"/>
<feBlend mode="normal" in2="BackgroundImageFix" result="effect1_dropShadow_99_1546"/>
<feBlend mode="normal" in="SourceGraphic" in2="effect1_dropShadow_99_1546" result="shape"/>
</filter>
<filter id="filter3_d_99_1546" x="15.7275" y="22.8057" width="64.3115" height="34.7559" filterUnits="userSpaceOnUse" color-interpolation-filters="sRGB">
<feFlood flood-opacity="0" result="BackgroundImageFix"/>
<feColorMatrix in="SourceAlpha" type="matrix" values="0 0 0 0 0 0 0 0 0 0 0 0 0 0 0 0 0 0 127 0" result="hardAlpha"/>
<feOffset/>
<feGaussianBlur stdDeviation="0.5"/>
<feComposite in2="hardAlpha" operator="out"/>
<feColorMatrix type="matrix" values="0 0 0 0 0 0 0 0 0 0 0 0 0 0 0 0 0 0 0.1 0"/>
<feBlend mode="normal" in2="BackgroundImageFix" result="effect1_dropShadow_99_1546"/>
<feBlend mode="normal" in="SourceGraphic" in2="effect1_dropShadow_99_1546" result="shape"/>
</filter>
<filter id="filter4_d_99_1546" x="9.43652" y="8.65039" width="64.3115" height="34.7563" filterUnits="userSpaceOnUse" color-interpolation-filters="sRGB">
<feFlood flood-opacity="0" result="BackgroundImageFix"/>
<feColorMatrix in="SourceAlpha" type="matrix" values="0 0 0 0 0 0 0 0 0 0 0 0 0 0 0 0 0 0 127 0" result="hardAlpha"/>
<feOffset/>
<feGaussianBlur stdDeviation="0.5"/>
<feComposite in2="hardAlpha" operator="out"/>
<feColorMatrix type="matrix" values="0 0 0 0 0 0 0 0 0 0 0 0 0 0 0 0 0 0 0.1 0"/>
<feBlend mode="normal" in2="BackgroundImageFix" result="effect1_dropShadow_99_1546"/>
<feBlend mode="normal" in="SourceGraphic" in2="effect1_dropShadow_99_1546" result="shape"/>
</filter>
<filter id="filter5_d_99_1546" x="12.5391" y="0" width="64.3115" height="34.7563" filterUnits="userSpaceOnUse" color-interpolation-filters="sRGB">
<feFlood flood-opacity="0" result="BackgroundImageFix"/>
<feColorMatrix in="SourceAlpha" type="matrix" values="0 0 0 0 0 0 0 0 0 0 0 0 0 0 0 0 0 0 127 0" result="hardAlpha"/>
<feOffset/>
<feGaussianBlur stdDeviation="0.5"/>
<feComposite in2="hardAlpha" operator="out"/>
<feColorMatrix type="matrix" values="0 0 0 0 0 0 0 0 0 0 0 0 0 0 0 0 0 0 0.1 0"/>
<feBlend mode="normal" in2="BackgroundImageFix" result="effect1_dropShadow_99_1546"/>
<feBlend mode="normal" in="SourceGraphic" in2="effect1_dropShadow_99_1546" result="shape"/>
</filter>
<filter id="filter6_d_99_1546" x="134.474" y="58.1934" width="58.9443" height="31.9346" filterUnits="userSpaceOnUse" color-interpolation-filters="sRGB">
<feFlood flood-opacity="0" result="BackgroundImageFix"/>
<feColorMatrix in="SourceAlpha" type="matrix" values="0 0 0 0 0 0 0 0 0 0 0 0 0 0 0 0 0 0 127 0" result="hardAlpha"/>
<feOffset/>
<feGaussianBlur stdDeviation="0.5"/>
<feComposite in2="hardAlpha" operator="out"/>
<feColorMatrix type="matrix" values="0 0 0 0 0 0 0 0 0 0 0 0 0 0 0 0 0 0 0.1 0"/>
<feBlend mode="normal" in2="BackgroundImageFix" result="effect1_dropShadow_99_1546"/>
<feBlend mode="normal" in="SourceGraphic" in2="effect1_dropShadow_99_1546" result="shape"/>
</filter>
<filter id="filter7_d_99_1546" x="136.833" y="44.8242" width="58.9443" height="31.9351" filterUnits="userSpaceOnUse" color-interpolation-filters="sRGB">
<feFlood flood-opacity="0" result="BackgroundImageFix"/>
<feColorMatrix in="SourceAlpha" type="matrix" values="0 0 0 0 0 0 0 0 0 0 0 0 0 0 0 0 0 0 127 0" result="hardAlpha"/>
<feOffset/>
<feGaussianBlur stdDeviation="0.5"/>
<feComposite in2="hardAlpha" operator="out"/>
<feColorMatrix type="matrix" values="0 0 0 0 0 0 0 0 0 0 0 0 0 0 0 0 0 0 0.1 0"/>
<feBlend mode="normal" in2="BackgroundImageFix" result="effect1_dropShadow_99_1546"/>
<feBlend mode="normal" in="SourceGraphic" in2="effect1_dropShadow_99_1546" result="shape"/>
</filter>
<filter id="filter8_d_99_1546" x="134.474" y="30.7207" width="58.9443" height="31.9351" filterUnits="userSpaceOnUse" color-interpolation-filters="sRGB">
<feFlood flood-opacity="0" result="BackgroundImageFix"/>
<feColorMatrix in="SourceAlpha" type="matrix" values="0 0 0 0 0 0 0 0 0 0 0 0 0 0 0 0 0 0 127 0" result="hardAlpha"/>
<feOffset/>
<feGaussianBlur stdDeviation="0.5"/>
<feComposite in2="hardAlpha" operator="out"/>
<feColorMatrix type="matrix" values="0 0 0 0 0 0 0 0 0 0 0 0 0 0 0 0 0 0 0.1 0"/>
<feBlend mode="normal" in2="BackgroundImageFix" result="effect1_dropShadow_99_1546"/>
<feBlend mode="normal" in="SourceGraphic" in2="effect1_dropShadow_99_1546" result="shape"/>
</filter>
<filter id="filter9_d_99_1546" x="76.2803" y="47.1841" width="53.4863" height="29.0649" filterUnits="userSpaceOnUse" color-interpolation-filters="sRGB">
<feFlood flood-opacity="0" result="BackgroundImageFix"/>
<feColorMatrix in="SourceAlpha" type="matrix" values="0 0 0 0 0 0 0 0 0 0 0 0 0 0 0 0 0 0 127 0" result="hardAlpha"/>
<feOffset/>
<feGaussianBlur stdDeviation="0.5"/>
<feComposite in2="hardAlpha" operator="out"/>
<feColorMatrix type="matrix" values="0 0 0 0 0 0 0 0 0 0 0 0 0 0 0 0 0 0 0.1 0"/>
<feBlend mode="normal" in2="BackgroundImageFix" result="effect1_dropShadow_99_1546"/>
<feBlend mode="normal" in="SourceGraphic" in2="effect1_dropShadow_99_1546" result="shape"/>
</filter>
<filter id="filter10_d_99_1546" x="81.7852" y="40.8926" width="53.4863" height="29.0649" filterUnits="userSpaceOnUse" color-interpolation-filters="sRGB">
<feFlood flood-opacity="0" result="BackgroundImageFix"/>
<feColorMatrix in="SourceAlpha" type="matrix" values="0 0 0 0 0 0 0 0 0 0 0 0 0 0 0 0 0 0 127 0" result="hardAlpha"/>
<feOffset/>
<feGaussianBlur stdDeviation="0.5"/>
<feComposite in2="hardAlpha" operator="out"/>
<feColorMatrix type="matrix" values="0 0 0 0 0 0 0 0 0 0 0 0 0 0 0 0 0 0 0.1 0"/>
<feBlend mode="normal" in2="BackgroundImageFix" result="effect1_dropShadow_99_1546"/>
<feBlend mode="normal" in="SourceGraphic" in2="effect1_dropShadow_99_1546" result="shape"/>
</filter>
<filter id="filter11_d_99_1546" x="51.1152" y="80.813" width="61.7656" height="33.418" filterUnits="userSpaceOnUse" color-interpolation-filters="sRGB">
<feFlood flood-opacity="0" result="BackgroundImageFix"/>
<feColorMatrix in="SourceAlpha" type="matrix" values="0 0 0 0 0 0 0 0 0 0 0 0 0 0 0 0 0 0 127 0" result="hardAlpha"/>
<feOffset/>
<feGaussianBlur stdDeviation="0.5"/>
<feComposite in2="hardAlpha" operator="out"/>
<feColorMatrix type="matrix" values="0 0 0 0 0 0 0 0 0 0 0 0 0 0 0 0 0 0 0.1 0"/>
<feBlend mode="normal" in2="BackgroundImageFix" result="effect1_dropShadow_99_1546"/>
<feBlend mode="normal" in="SourceGraphic" in2="effect1_dropShadow_99_1546" result="shape"/>
</filter>
<filter id="filter12_d_99_1546" x="58.1934" y="65.6392" width="58.0674" height="31.4736" filterUnits="userSpaceOnUse" color-interpolation-filters="sRGB">
<feFlood flood-opacity="0" result="BackgroundImageFix"/>
<feColorMatrix in="SourceAlpha" type="matrix" values="0 0 0 0 0 0 0 0 0 0 0 0 0 0 0 0 0 0 127 0" result="hardAlpha"/>
<feOffset/>
<feGaussianBlur stdDeviation="0.5"/>
<feComposite in2="hardAlpha" operator="out"/>
<feColorMatrix type="matrix" values="0 0 0 0 0 0 0 0 0 0 0 0 0 0 0 0 0 0 0.1 0"/>
<feBlend mode="normal" in2="BackgroundImageFix" result="effect1_dropShadow_99_1546"/>
<feBlend mode="normal" in="SourceGraphic" in2="effect1_dropShadow_99_1546" result="shape"/>
</filter>
<filter id="filter13_d_99_1546" x="85.7715" y="68.6685" width="63.3926" height="40.3857" filterUnits="userSpaceOnUse" color-interpolation-filters="sRGB">
<feFlood flood-opacity="0" result="BackgroundImageFix"/>
<feColorMatrix in="SourceAlpha" type="matrix" values="0 0 0 0 0 0 0 0 0 0 0 0 0 0 0 0 0 0 127 0" result="hardAlpha"/>
<feOffset/>
<feGaussianBlur stdDeviation="0.5"/>
<feComposite in2="hardAlpha" operator="out"/>
<feColorMatrix type="matrix" values="0 0 0 0 0 0 0 0 0 0 0 0 0 0 0 0 0 0 0.1 0"/>
<feBlend mode="normal" in2="BackgroundImageFix" result="effect1_dropShadow_99_1546"/>
<feBlend mode="normal" in="SourceGraphic" in2="effect1_dropShadow_99_1546" result="shape"/>
</filter>
</defs>
</svg>
