<svg width="147" height="186" viewBox="0 0 147 186" fill="none" xmlns="http://www.w3.org/2000/svg">
<path d="M9.28906 53.0139C9.28875 67.5182 14.4253 105.688 17.9274 123.392C17.9733 123.623 18.1825 123.78 18.4285 123.78H128.617C128.844 123.78 129.045 123.636 129.109 123.427L138.485 92.8199L143.049 63.7314C143.138 63.1652 142.316 62.9355 142.073 63.4587L134.412 79.9822C134.393 80.0223 134.369 80.0598 134.34 80.0938L128.372 87.0857C128.067 87.4432 127.463 87.2364 127.463 86.7745V75.1283V57.0628C127.463 56.4822 126.597 56.3815 126.452 56.9452L123.105 69.9682L120.077 85.4457C119.965 86.0196 119.088 85.9604 119.061 85.3771L118.491 73.1625L119.853 37.2469C119.875 36.6579 118.995 36.5371 118.844 37.1085L114.646 53.0139L107.706 86.7166C107.59 87.2801 106.732 87.2279 106.692 86.6549L105.417 68.7397L101.059 35.5679V48.5909L98.8589 69.9176C98.8163 70.3305 98.2922 70.5101 97.9862 70.2168L96.5954 68.8836C96.4992 68.7914 96.4452 68.6664 96.4452 68.5361V47.2589C96.4452 46.6704 95.5623 46.5793 95.4316 47.1543L90.836 67.3776C90.8162 67.4649 90.7719 67.5454 90.7078 67.6104L82.1385 76.3077C82.1064 76.3403 82.0697 76.3686 82.0296 76.3917L76.458 79.596C76.1163 79.7926 75.6815 79.5566 75.6815 79.1746V58.9499C75.6815 58.924 75.6794 58.8981 75.6751 58.8726L71.8493 35.8505C71.7523 35.2668 70.8603 35.314 70.8309 35.9045L69.7857 56.9453L68.6418 65.8732C68.5661 66.4641 67.6645 66.4413 67.6215 65.8474L65.703 39.3656C65.6613 38.7909 64.7998 38.7421 64.6878 39.3081L62.6081 49.8195L59.4565 71.1821C59.3752 71.7331 58.5517 71.7506 58.4449 71.2037L51.0639 33.4029C50.9493 32.8159 50.0473 32.8961 50.0473 33.4933V74.6368C50.0473 74.9083 49.8178 75.1283 49.5346 75.1283H47.9253C47.6716 75.1283 47.456 74.9504 47.4183 74.7099L41.5965 37.5781C41.5044 36.9905 40.606 37.0349 40.5774 37.6284L38.7769 74.9493C38.7713 75.0649 38.7234 75.1749 38.6415 75.2599L36.3274 77.6629C36.0526 77.9483 35.5574 77.8298 35.4547 77.4542L27.1647 47.1324C27.009 46.5628 26.1302 46.6897 26.1566 47.278L27.7456 82.7455C25.1821 63.0063 18.0047 31.145 18.0047 34.5851C18.0047 42.6848 19.5325 70.7292 21.2733 87.6966C21.3341 88.2895 20.4437 88.4639 20.2659 87.893C14.8227 70.4202 9.28918 47.6404 9.28906 53.0139Z" fill="#4C6C49"/>
<path d="M110.543 42.4478C107.284 52.599 106.453 100.425 106.441 123.547C106.441 123.818 106.671 124.026 106.954 124.026H113.622C113.904 124.026 114.133 123.816 114.134 123.546C114.282 92.013 112.269 37.0693 110.543 42.4478Z" fill="#759A6D"/>
<path d="M97.9822 54.4881C94.9313 61.3116 92.1327 102.858 91.0866 123.277C91.0722 123.557 91.3062 123.78 91.5991 123.78H103.098C103.385 123.78 103.617 123.563 103.61 123.287C102.982 97.2233 99.7289 50.5813 97.9822 54.4881Z" fill="#759A6D"/>
<path d="M79.269 39.4992C77.8425 43.7967 74.7791 97.3016 73.3991 124.014C73.3846 124.295 73.6187 124.517 73.9117 124.517H88.5045C88.7848 124.517 89.013 124.313 89.0169 124.044C89.5291 89.0081 90.2349 20.8425 89.01 24.7563C87.9439 28.1624 85.903 49.6438 84.6542 64.1123C84.6022 64.715 83.6434 64.7143 83.5856 64.1121C82.4055 51.8251 80.4868 35.8306 79.269 39.4992Z" fill="#759A6D"/>
<path d="M68.5028 56.2079C63.4199 68.4861 64.1323 105.932 65.1441 123.573C65.159 123.834 65.383 124.026 65.655 124.026H69.3012C69.5726 124.026 69.7966 123.83 69.8122 123.57C71.4863 95.7633 70.8297 50.5872 68.5028 56.2079Z" fill="#759A6D"/>
<path d="M57.7371 41.7105C55.7652 52.5823 55.7717 100.444 56.4418 123.56C56.4495 123.826 56.6762 124.026 56.9537 124.026H62.3419C62.6286 124.026 62.8598 123.809 62.8545 123.535C62.2301 91.5121 58.757 36.088 57.7371 41.7105Z" fill="#759A6D"/>
<path d="M33.3828 77.5854C32.5726 87.0999 35.0305 111.942 36.4083 123.6C36.4377 123.848 36.6557 124.026 36.9164 124.026H42.3548C42.638 124.026 42.8675 123.809 42.8675 123.537V88.397C42.8675 82.6575 38.7297 62.7055 36.0301 49.9204C35.9097 49.3503 35.031 49.4181 35.0054 49.9993C34.6704 57.614 34.0617 69.6138 33.3828 77.5854Z" fill="#759A6D"/>
<path d="M16.4454 59.9883C15.0205 67.598 20.3812 105.373 23.3018 123.714C23.34 123.953 23.5536 124.12 23.8068 124.12H29.6885C30.0033 124.12 30.2456 123.863 30.1968 123.564C26.1465 98.8443 17.8702 52.3794 16.4454 59.9883Z" fill="#759A6D"/>
<path d="M135.409 43.6762C131.362 53.5914 123.064 100.437 120.098 123.488C120.06 123.781 120.3 124.025 120.608 124.025H127.022C127.276 124.025 127.49 123.856 127.528 123.616C132.381 92.8226 137.706 38.0499 135.409 43.6762Z" fill="#759A6D"/>
<path d="M3.13623 60.8765C6.43442 67.6856 18.2691 104.017 23.4827 123.424C23.5661 123.735 23.3182 124.026 22.9836 124.026H16.0983C15.8626 124.026 15.6595 123.88 15.6031 123.661C9.70373 100.693 0.582111 55.6036 3.13623 60.8765Z" fill="#759A6D"/>
<path d="M46.9704 47.3623C44.7295 54.3922 47.0251 100.639 48.4795 123.33C48.4961 123.59 48.7195 123.78 48.9904 123.78H53.3548C53.6472 123.78 53.881 123.557 53.8674 123.277C52.4859 94.7152 49.2129 40.3271 46.9704 47.3623Z" fill="#759A6D"/>
<path d="M134.384 69.2306C132.103 68.7448 124.146 107.792 121.899 123.485C121.857 123.78 122.099 124.025 122.409 124.025H132.729C132.951 124.025 133.146 123.895 133.214 123.692C138.876 106.896 148.916 75.4124 144.637 81.2707C140.331 87.1679 132.418 107.48 129.001 116.9C132.846 98.0613 136.135 69.6037 134.384 69.2306Z" fill="#97C390"/>
<path d="M121.31 58.6649C115.834 73.246 111.578 107.616 110.08 123.503C110.053 123.79 110.291 124.025 110.592 124.025H114.972C115.226 124.025 115.441 123.852 115.478 123.61C119.721 95.6784 123.147 53.7748 121.31 58.6649Z" fill="#97C390"/>
<path d="M96.5383 124.026H93.1816C92.8727 124.026 92.6327 123.775 92.6722 123.481C95.5399 102.174 102.558 65.0891 103.878 69.2308C106.116 76.2489 100.302 108.174 97.0385 123.641C96.9902 123.87 96.7821 124.026 96.5383 124.026Z" fill="#97C390"/>
<path d="M84.9528 124.026H80.3417C80.0408 124.026 79.8036 123.789 79.8301 123.502C81.733 102.88 85.8985 63.8666 87.7285 68.7394C89.5579 73.6104 87.0053 107.047 85.4624 123.588C85.4388 123.842 85.2182 124.026 84.9528 124.026Z" fill="#97C390"/>
<path d="M73.3737 58.6652C70.5211 74.5706 70.9723 108.236 72.5594 123.596C72.5853 123.846 72.8045 124.026 73.0674 124.026H76.4615C76.7401 124.026 76.9676 123.818 76.9735 123.552C77.6113 95.1268 74.4926 52.4265 73.3737 58.6652Z" fill="#97C390"/>
<path d="M60.043 68.7397C60.0431 83.1653 61.4647 111.055 63.5636 123.624C63.6032 123.862 63.8157 124.026 64.0665 124.026H68.7139C69.0139 124.026 69.2505 123.787 69.2248 123.5C67.0343 99.0035 60.0429 62.0801 60.043 68.7397Z" fill="#97C390"/>
<path d="M45.0776 124.026H40.7541C40.4972 124.026 40.2812 123.853 40.2472 123.609C37.4158 103.263 32.3727 64.6971 34.4095 69.9683C36.4361 75.2133 42.635 107.446 45.5845 123.461C45.6399 123.762 45.3963 124.026 45.0776 124.026Z" fill="#97C390"/>
<path d="M17.8029 123.78H12.4763C12.2565 123.78 12.0634 123.652 11.9932 123.453C6.52313 107.888 -1.72038 78.831 0.316845 81.271C3.35259 84.9069 13.6455 110.081 18.291 123.141C18.4042 123.459 18.1537 123.78 17.8029 123.78Z" fill="#97C390"/>
<path d="M31.8298 124.025H26.9654C26.6863 124.025 26.4587 123.821 26.4532 123.553C26.0426 103.456 26.4749 66.5603 28.0011 70.7048C29.9703 76.0523 31.8073 107.786 32.3423 123.529C32.3518 123.806 32.1193 124.025 31.8298 124.025Z" fill="#97C390"/>
<path d="M138.212 123.534H7.51084C7.22137 123.534 6.98866 123.753 7.00043 124.03C7.89029 144.991 22.2006 185.946 72.8617 185.946C123.523 185.946 137.833 144.991 138.723 124.03C138.735 123.753 138.502 123.534 138.212 123.534Z" fill="#49257B"/>
<path d="M138.212 123.534H7.51084C7.22137 123.534 6.98866 123.753 7.00043 124.03C7.89029 144.991 22.2006 185.946 72.8617 185.946C123.523 185.946 137.833 144.991 138.723 124.03C138.735 123.753 138.502 123.534 138.212 123.534Z" fill="url(#paint0_linear_94_633)" fill-opacity="0.2"/>
<path d="M12.5189 134.676C13.5098 134.676 14.3133 135.446 14.3133 136.396C14.3133 137.346 13.5098 138.116 12.5189 138.116H8.97266V134.676H12.5189ZM26.7028 134.676C27.6938 134.676 28.4972 135.446 28.4972 136.396C28.4972 137.346 27.6938 138.116 26.7028 138.116H19.6109C18.6198 138.116 17.8165 137.346 17.8165 136.396C17.8165 135.446 18.6198 134.676 19.6109 134.676H26.7028ZM40.8872 134.676C41.8783 134.676 42.6816 135.446 42.6816 136.396C42.6816 137.346 41.8783 138.116 40.8872 138.116H33.7953C32.8043 138.116 32.0009 137.346 32.0009 136.396C32.0009 135.446 32.8043 134.676 33.7953 134.676H40.8872ZM55.0717 134.676C56.0626 134.676 56.8661 135.446 56.8661 136.396C56.8661 137.346 56.0626 138.116 55.0717 138.116H47.9792C46.9883 138.116 46.1848 137.346 46.1848 136.396C46.1848 135.446 46.9883 134.676 47.9792 134.676H55.0717ZM69.2556 134.676C70.2466 134.676 71.05 135.446 71.05 136.396C71.05 137.346 70.2466 138.116 69.2556 138.116H62.1636C61.1726 138.116 60.3692 137.346 60.3692 136.396C60.3692 135.446 61.1726 134.676 62.1636 134.676H69.2556ZM83.44 134.676C84.431 134.676 85.2344 135.446 85.2344 136.396C85.2344 137.346 84.431 138.116 83.44 138.116H76.3481C75.357 138.116 74.5537 137.346 74.5537 136.396C74.5537 135.446 75.357 134.676 76.3481 134.676H83.44ZM97.6244 134.676C98.6154 134.676 99.4188 135.446 99.4188 136.396C99.4188 137.346 98.6154 138.116 97.6244 138.116H90.532C89.541 138.116 88.7376 137.346 88.7376 136.396C88.7376 135.446 89.541 134.676 90.532 134.676H97.6244ZM111.808 134.676C112.799 134.676 113.603 135.446 113.603 136.396C113.603 137.346 112.799 138.116 111.808 138.116H104.716C103.725 138.116 102.922 137.346 102.922 136.396C102.922 135.446 103.725 134.676 104.716 134.676H111.808ZM125.993 134.676C126.984 134.676 127.787 135.446 127.787 136.396C127.787 137.346 126.984 138.116 125.993 138.116H118.901C117.91 138.116 117.106 137.346 117.106 136.396C117.106 135.446 117.91 134.676 118.901 134.676H125.993ZM136.631 134.676V138.116H133.085C132.094 138.116 131.29 137.346 131.29 136.396C131.29 135.446 132.094 134.676 133.085 134.676H136.631Z" fill="#6D4BAE"/>
<path d="M17.5887 132.161C17.5243 131.24 17.0894 130.416 16.3422 129.876C15.5972 129.335 14.6011 129.123 13.6104 129.278C12.6197 129.434 11.7262 129.944 11.164 130.691C10.5996 131.437 10.4126 132.359 10.6066 133.259C10.6066 133.259 10.6066 133.259 10.6066 133.259C10.7969 134.181 11.0404 135.104 11.3013 135.964C16.5544 151.031 25.726 164.014 38.3401 172.678C39.0455 173.136 39.7715 173.578 40.5008 173.99C39.8383 173.482 39.1852 172.947 38.5576 172.401C27.4697 162.331 20.5228 148.169 17.8302 134.364C17.7172 133.62 17.6272 132.854 17.5887 132.161Z" fill="white" fill-opacity="0.5"/>
<defs>
<linearGradient id="paint0_linear_94_633" x1="89.7209" y1="176.202" x2="68.18" y2="157.862" gradientUnits="userSpaceOnUse">
<stop stop-color="#0C0712"/>
<stop offset="1" stop-color="#290F4D" stop-opacity="0"/>
</linearGradient>
</defs>
</svg>
