<svg width="262" height="130" viewBox="0 0 262 130" fill="none" xmlns="http://www.w3.org/2000/svg">
<path d="M33.3832 6.5252C21.264 8.30744 16.8865 14.0601 17.3742 20.2451C17.4814 21.605 18.717 22.5252 20.0811 22.5252H245.266C246.923 22.5252 248.229 21.1084 247.303 19.7342C245.851 17.5781 242.638 14.7803 236.883 9.0252C226.383 -1.4748 172.136 9.64758 151.384 3.025C127.883 -4.47485 50.3832 4.0252 33.3832 6.5252Z" fill="#5C3118"/>
<mask id="mask0_122_797" style="mask-type:alpha" maskUnits="userSpaceOnUse" x="1" y="18" width="260" height="111">
<path d="M5.89639 18.0251H255.635C258.447 18.0251 260.716 20.3565 260.555 23.1638C257.927 68.7488 235.552 77.3323 147.883 77.9829C147.595 77.985 147.307 105.457 147.017 115.525C146.973 117.087 196.928 117.99 196.883 127.99C187.716 128.051 78.5489 128.043 69.3828 127.944C69.3384 117.944 119.294 117.059 119.25 115.525C118.96 105.525 118.671 77.9365 118.383 77.9332C34.8209 76.9686 4.23752 67.8235 1.01331 23.163C0.81083 20.3583 3.08442 18.0251 5.89639 18.0251Z" fill="url(#paint0_linear_122_797)"/>
<path d="M5.89639 18.0251H255.635C258.447 18.0251 260.716 20.3565 260.555 23.1638C257.927 68.7488 235.552 77.3323 147.883 77.9829C147.595 77.985 147.307 105.457 147.017 115.525C146.973 117.087 196.928 117.99 196.883 127.99C187.716 128.051 78.5489 128.043 69.3828 127.944C69.3384 117.944 119.294 117.059 119.25 115.525C118.96 105.525 118.671 77.9365 118.383 77.9332C34.8209 76.9686 4.23752 67.8235 1.01331 23.163C0.81083 20.3583 3.08442 18.0251 5.89639 18.0251Z" fill="url(#paint1_linear_122_797)" fill-opacity="0.2"/>
</mask>
<g mask="url(#mask0_122_797)">
<rect x="-6.11719" y="-15.9749" width="324" height="201" fill="url(#paint2_linear_122_797)"/>
<rect x="-6.11719" y="-15.9749" width="324" height="201" fill="url(#paint3_linear_122_797)" fill-opacity="0.3"/>
<path d="M12.0786 55.0657C5.32313 55.0657 3.17236 30.1966 20.1037 34.6357C29.2838 37.0425 24.7853 49.241 25.8864 54.2165C27.4265 61.1755 34.9742 61.4296 39.4614 60.836C53.7202 58.9497 57.1391 38.7204 43.1703 36.0911C35.438 34.6357 32.0548 46.5078 36.3828 49.8619" stroke="#A0520E" stroke-width="3" stroke-linecap="round"/>
<path d="M97.0581 55.0657C103.814 55.0657 105.964 30.1966 89.033 34.6357C79.8529 37.0425 84.3514 49.241 83.2503 54.2165C81.7102 61.1755 74.1625 61.4296 69.6753 60.836C55.4165 58.9497 51.9976 38.7204 65.9664 36.0911C73.6987 34.6357 74.9497 45.8565 70.6217 49.2106" stroke="#A0520E" stroke-width="3" stroke-linecap="round"/>
<path d="M112.079 55.0657C105.323 55.0657 103.172 30.1966 120.104 34.6357C129.284 37.0425 124.785 49.241 125.886 54.2165C127.426 61.1755 134.974 61.4296 139.461 60.836C153.72 58.9497 157.139 38.7204 143.17 36.0911C135.438 34.6357 134.187 45.8565 138.515 49.2106" stroke="#A0520E" stroke-width="3" stroke-linecap="round"/>
<path d="M197.058 55.0657C203.814 55.0657 205.964 30.1966 189.033 34.6357C179.853 37.0425 184.351 49.241 183.25 54.2165C181.71 61.1755 174.163 61.4296 169.675 60.836C155.416 58.9497 151.998 38.7204 165.966 36.0911C173.699 34.6357 174.95 45.8565 170.622 49.2106" stroke="#A0520E" stroke-width="3" stroke-linecap="round"/>
<path d="M212.079 55.0657C205.323 55.0657 203.172 30.1966 220.104 34.6357C229.284 37.0425 224.785 49.241 225.886 54.2165C227.426 61.1755 234.974 61.4296 239.461 60.836C253.72 58.9497 257.139 38.7204 243.17 36.0911C235.438 34.6357 234.187 45.8565 238.515 49.2106" stroke="#A0520E" stroke-width="3" stroke-linecap="round"/>
<ellipse cx="16.3828" cy="45.5762" rx="3.5" ry="4.28571" fill="#A0520E"/>
<ellipse cx="117.383" cy="45.5762" rx="3.5" ry="4.28571" fill="#A0520E"/>
<ellipse cx="219.383" cy="45.5762" rx="3.5" ry="4.28571" fill="#A0520E"/>
<ellipse cx="65.3828" cy="45.5762" rx="3.5" ry="4.28571" fill="#A0520E"/>
<ellipse cx="166.383" cy="45.5762" rx="3.5" ry="4.28571" fill="#A0520E"/>
<ellipse cx="42.3828" cy="45.5762" rx="3.5" ry="4.28571" fill="#A0520E"/>
<ellipse cx="143.383" cy="45.5762" rx="3.5" ry="4.28571" fill="#A0520E"/>
<ellipse cx="245.383" cy="45.5762" rx="3.5" ry="4.28571" fill="#A0520E"/>
<ellipse cx="91.3828" cy="45.5762" rx="3.5" ry="4.28571" fill="#A0520E"/>
<ellipse cx="192.383" cy="45.5762" rx="3.5" ry="4.28571" fill="#A0520E"/>
<path d="M25.5179 31.1514C25.4447 29.7738 24.8618 28.4895 23.8209 27.5866C22.7845 26.6834 21.3751 26.2356 19.9794 26.3362C18.5838 26.4368 17.3382 27.0759 16.5933 28.1075C15.8439 29.1394 15.6565 30.4792 15.9955 31.8377C16.2127 32.7492 16.4563 33.6772 16.7342 34.6082C21.7427 52.3035 37.7388 61.6492 51.2823 64.6243C52.0434 64.8059 52.8201 64.9799 53.613 65.1459C52.8523 64.8151 52.1125 64.4778 51.3933 64.1348C38.1929 58.227 26.5174 46.4566 25.6659 33.3231C25.5944 32.6033 25.5499 31.8967 25.5179 31.1514Z" fill="white" fill-opacity="0.3"/>
</g>
<path d="M120.758 8.24618C120.758 8.24618 113.737 4.91284 111.61 4.91284C109.482 4.91284 107.758 6.03213 107.758 7.41284C107.758 8.79355 109.482 9.91284 111.61 9.91284C113.737 9.91284 120.758 8.24618 120.758 8.24618Z" fill="#FBEDCC"/>
<path d="M122.758 8.24618C122.758 8.24618 129.239 4.91284 131.202 4.91284C133.166 4.91284 134.758 6.03213 134.758 7.41284C134.758 8.79355 133.166 9.91284 131.202 9.91284C129.239 9.91284 122.758 8.24618 122.758 8.24618Z" fill="#FBEDCC"/>
<path d="M121.318 7.53374C121.318 7.53374 118.206 4.26103 118.328 3.42561C118.45 2.59019 119.731 2.08606 121.187 2.29961C122.643 2.51316 123.725 3.36352 123.602 4.19894C123.48 5.03437 121.318 7.53374 121.318 7.53374Z" fill="#FBEDCC"/>
<path d="M121.549 9.02515C121.549 9.02515 124.883 11.7255 124.883 12.5437C124.883 13.3619 123.764 14.0251 122.383 14.0251C121.002 14.0251 119.883 13.3619 119.883 12.5437C119.883 11.7255 121.549 9.02515 121.549 9.02515Z" fill="#FBEDCC"/>
<defs>
<linearGradient id="paint0_linear_122_797" x1="73.7655" y1="-105.439" x2="179.009" y2="62.023" gradientUnits="userSpaceOnUse">
<stop stop-color="#FFFCF0"/>
<stop offset="1" stop-color="#FAFFEB"/>
</linearGradient>
<linearGradient id="paint1_linear_122_797" x1="130.766" y1="-73.8116" x2="221.691" y2="82.2131" gradientUnits="userSpaceOnUse">
<stop stop-color="#B58C57" stop-opacity="0"/>
<stop offset="1" stop-color="#737373"/>
</linearGradient>
<linearGradient id="paint2_linear_122_797" x1="9" y1="-25.6722" x2="216.77" y2="-40.4004" gradientUnits="userSpaceOnUse">
<stop stop-color="#D06E30"/>
<stop offset="1" stop-color="#B36635"/>
</linearGradient>
<linearGradient id="paint3_linear_122_797" x1="91.3828" y1="-79.4485" x2="260.873" y2="84.4628" gradientUnits="userSpaceOnUse">
<stop stop-color="#C9733D" stop-opacity="0"/>
<stop offset="1" stop-color="#5C3118"/>
</linearGradient>
</defs>
</svg>
