<svg width="262" height="117" viewBox="0 0 262 117" fill="none" xmlns="http://www.w3.org/2000/svg">
<g filter="url(#filter0_n_122_586)">
<path d="M29.2062 45C16.9427 46.8035 15.9544 58.7709 17.2228 66.2381C17.4512 67.5829 18.6576 68.5 20.0217 68.5H245.207C246.864 68.5 248.177 67.1494 247.789 65.5387C246.842 61.6091 244.098 55.3914 237.707 49C227.207 38.5 171.707 28.5 153.207 17C134.707 5.50003 46.2062 42.5 29.2062 45Z" fill="#47242A"/>
</g>
<mask id="mask0_122_586" style="mask-type:alpha" maskUnits="userSpaceOnUse" x="1" y="64" width="260" height="49">
<path d="M255.546 64H5.8676C3.04426 64 0.760707 66.3604 1.01957 69.1719C4.51979 107.186 34.1645 113 130.707 113C227.25 113 256.894 107.186 260.395 69.1719C260.653 66.3604 258.37 64 255.546 64Z" fill="url(#paint0_linear_122_586)"/>
<path d="M255.546 64H5.8676C3.04426 64 0.760707 66.3604 1.01957 69.1719C4.51979 107.186 34.1645 113 130.707 113C227.25 113 256.894 107.186 260.395 69.1719C260.653 66.3604 258.37 64 255.546 64Z" fill="url(#paint1_linear_122_586)" fill-opacity="0.2"/>
</mask>
<g mask="url(#mask0_122_586)">
<rect x="-6.29297" y="36" width="324" height="114" fill="url(#paint2_linear_122_586)"/>
<rect x="-6.29297" y="36" width="324" height="114" fill="url(#paint3_linear_122_586)" fill-opacity="0.3"/>
<rect x="-6.29297" y="36" width="12" height="45" fill="#075D52"/>
<rect x="233.707" y="36" width="12" height="45" fill="#B4578A"/>
<rect x="-6.29297" y="105" width="12" height="45" fill="#F19195"/>
<rect x="233.707" y="105" width="12" height="45" fill="#3E9398"/>
<rect x="113.707" y="36" width="12" height="45" fill="#B38946"/>
<rect x="113.707" y="105" width="12" height="45" fill="#583093"/>
<rect x="5.70703" y="81" width="12" height="24" fill="#F1815C"/>
<rect x="245.707" y="81" width="12" height="24" fill="#EFC151"/>
<rect x="125.707" y="81" width="12" height="24" fill="#1ABBB6"/>
<rect x="89.707" y="36" width="12" height="45" fill="#B38946"/>
<rect x="89.707" y="105" width="12" height="45" fill="#F19195"/>
<rect x="209.707" y="36" width="12" height="45" fill="#B4578A"/>
<rect x="209.707" y="105" width="12" height="45" fill="#583093"/>
<rect x="101.707" y="81" width="12" height="24" fill="#F1815C"/>
<rect x="221.707" y="81" width="12" height="24" fill="#EFC152"/>
<rect x="41.707" y="36" width="12" height="45" fill="#085E53"/>
<rect x="41.707" y="105" width="12" height="45" fill="#F19195"/>
<rect x="161.707" y="36" width="12" height="45" fill="#B38946"/>
<rect x="161.707" y="105" width="12" height="45" fill="#583093"/>
<rect x="53.707" y="81" width="12" height="24" fill="#F1815C"/>
<rect x="173.707" y="81" width="12" height="24" fill="#1ABBB6"/>
<rect x="17.707" y="36" width="12" height="45" fill="#075D52"/>
<rect x="257.707" y="36" width="12" height="45" fill="#1D87C1"/>
<rect x="17.707" y="105" width="12" height="45" fill="#F19195"/>
<rect x="257.707" y="105" width="12" height="45" fill="#3E9398"/>
<rect x="137.707" y="36" width="12" height="45" fill="#B38946"/>
<rect x="137.707" y="105" width="12" height="45" fill="#583093"/>
<rect x="29.707" y="81" width="12" height="24" fill="#F1815C"/>
<rect x="149.707" y="81" width="12" height="24" fill="#1ABBB6"/>
<rect x="65.707" y="36" width="12" height="45" fill="#B38946"/>
<rect x="65.707" y="105" width="12" height="45" fill="#F19195"/>
<rect x="185.707" y="36" width="12" height="45" fill="#B4578A"/>
<rect x="185.707" y="105" width="12" height="45" fill="#583093"/>
<rect x="77.707" y="81" width="12" height="24" fill="#F1815C"/>
<rect x="197.707" y="81" width="12" height="24" fill="#1ABBB6"/>
<path d="M25.6151 74.0927C25.5204 72.7618 24.8994 71.5831 23.8048 70.8316C22.7149 70.0791 21.2409 69.8154 19.7909 70.083C18.3409 70.3505 17.058 71.1229 16.3085 72.2147C15.5541 73.3074 15.3946 74.63 15.7811 75.9072C15.7811 75.9072 15.7811 75.9072 15.7811 75.9072C16.018 76.7354 16.2921 77.5966 16.6012 78.4297C22.669 94.2436 38.2409 99.8148 51.2932 102.12C52.032 102.247 52.7856 102.367 53.5544 102.482C53.5544 102.482 53.5544 102.482 53.5544 102.482C52.8277 102.206 52.1203 101.925 51.4317 101.64C38.9902 96.7042 26.9918 87.4473 25.7801 75.9809C25.7017 75.3636 25.6506 74.7455 25.6151 74.0927Z" fill="white" fill-opacity="0.3"/>
</g>
<defs>
<filter id="filter0_n_122_586" x="16.8047" y="14.7899" width="231.053" height="53.7101" filterUnits="userSpaceOnUse" color-interpolation-filters="sRGB">
<feFlood flood-opacity="0" result="BackgroundImageFix"/>
<feBlend mode="normal" in="SourceGraphic" in2="BackgroundImageFix" result="shape"/>
<feTurbulence type="fractalNoise" baseFrequency="0.5 0.5" stitchTiles="stitch" numOctaves="3" result="noise" seed="789" />
<feColorMatrix in="noise" type="luminanceToAlpha" result="alphaNoise" />
<feComponentTransfer in="alphaNoise" result="coloredNoise1">
<feFuncA type="discrete" tableValues="1 1 1 1 1 1 1 1 1 1 1 1 1 1 1 1 1 1 1 1 1 1 1 1 1 1 1 1 1 1 1 1 1 1 1 1 1 1 1 1 1 1 1 1 1 1 1 1 1 1 1 0 0 0 0 0 0 0 0 0 0 0 0 0 0 0 0 0 0 0 0 0 0 0 0 0 0 0 0 0 0 0 0 0 0 0 0 0 0 0 0 0 0 0 0 0 0 0 0 0 "/>
</feComponentTransfer>
<feComposite operator="in" in2="shape" in="coloredNoise1" result="noise1Clipped" />
<feFlood flood-color="rgba(230, 43, 58, 0.4)" result="color1Flood" />
<feComposite operator="in" in2="noise1Clipped" in="color1Flood" result="color1" />
<feMerge result="effect1_noise_122_586">
<feMergeNode in="shape" />
<feMergeNode in="color1" />
</feMerge>
</filter>
<linearGradient id="paint0_linear_122_586" x1="73.7069" y1="-36.8291" x2="151.207" y2="114.171" gradientUnits="userSpaceOnUse">
<stop stop-color="#FFFCF0"/>
<stop offset="1" stop-color="#FAFFEB"/>
</linearGradient>
<linearGradient id="paint1_linear_122_586" x1="130.707" y1="-11" x2="196.941" y2="128.171" gradientUnits="userSpaceOnUse">
<stop stop-color="#B58C57" stop-opacity="0"/>
<stop offset="1" stop-color="#737373"/>
</linearGradient>
<linearGradient id="paint2_linear_122_586" x1="84.6762" y1="-198.582" x2="306.398" y2="32.809" gradientUnits="userSpaceOnUse">
<stop stop-color="#FFFCF0"/>
<stop offset="1" stop-color="#FAFFEB"/>
</linearGradient>
<linearGradient id="paint3_linear_122_586" x1="91.207" y1="2.25333e-06" x2="175.151" y2="143.135" gradientUnits="userSpaceOnUse">
<stop stop-color="white" stop-opacity="0"/>
<stop offset="1" stop-color="#737373"/>
</linearGradient>
</defs>
</svg>
